solid topper
facet normal 0.0 0.0 1.0
outer loop
vertex 212.210447079815 180.004427152938 105.3
vertex 212.210447079815 183.022257218834 105.3
vertex 212.01179464708 181.513342185886 105.3
endloop
endfacet
facet normal 0.0 0.0 1.0
outer loop
vertex 212.210447079815 183.022257218834 105.3
vertex 212.210447079815 180.004427152938 105.3
vertex 212.792866543017 178.598342185886 105.3
endloop
endfacet
facet normal 0.0 0.0 1.0
outer loop
vertex 212.210447079815 183.022257218834 105.3
vertex 212.792866543017 178.598342185886 105.3
vertex 212.792866543017 184.428342185886 105.3
endloop
endfacet
facet normal 0.0 0.0 1.0
outer loop
vertex 212.792866543017 184.428342185886 105.3
vertex 212.792866543017 178.598342185886 105.3
vertex 213.719362112763 177.390909651569 105.3
endloop
endfacet
facet normal 0.0 0.0 1.0
outer loop
vertex 212.792866543017 184.428342185886 105.3
vertex 213.719362112763 177.390909651569 105.3
vertex 213.719362112763 185.635774720203 105.3
endloop
endfacet
facet normal 0.0 0.0 1.0
outer loop
vertex 213.719362112763 185.635774720203 105.3
vertex 213.719362112763 177.390909651569 105.3
vertex 213.775886699135 181.513342185886 105.3
endloop
endfacet
facet normal 0.0 0.0 1.0
outer loop
vertex 213.775886699135 181.513342185886 105.3
vertex 213.719362112763 177.390909651569 105.3
vertex 213.914429152846 180.461007773324 105.3
endloop
endfacet
facet normal 0.0 0.0 1.0
outer loop
vertex 213.914429152846 180.461007773324 105.3
vertex 213.719362112763 177.390909651569 105.3
vertex 214.92679464708 176.464414081823 105.3
endloop
endfacet
facet normal 0.0 0.0 1.0
outer loop
vertex 213.914429152846 180.461007773324 105.3
vertex 214.92679464708 176.464414081823 105.3
vertex 214.320615074711 179.480388211914 105.3
endloop
endfacet
facet normal 0.0 0.0 1.0
outer loop
vertex 214.320615074711 179.480388211914 105.3
vertex 214.92679464708 176.464414081823 105.3
vertex 214.966763565408 178.638311104214 105.3
endloop
endfacet
facet normal 0.0 0.0 1.0
outer loop
vertex 214.966763565408 178.638311104214 105.3
vertex 214.92679464708 176.464414081823 105.3
vertex 216.332879614132 175.881994618621 105.3
endloop
endfacet
facet normal 0.0 0.0 1.0
outer loop
vertex 214.966763565408 178.638311104214 105.3
vertex 216.332879614132 175.881994618621 105.3
vertex 215.808840673108 177.992162613516 105.3
endloop
endfacet
facet normal 0.0 0.0 1.0
outer loop
vertex 215.808840673108 177.992162613516 105.3
vertex 216.332879614132 175.881994618621 105.3
vertex 216.789460234518 177.585976691652 105.3
endloop
endfacet
facet normal 0.0 0.0 1.0
outer loop
vertex 216.789460234518 177.585976691652 105.3
vertex 216.332879614132 175.881994618621 105.3
vertex 217.84179464708 175.683342185886 105.3
endloop
endfacet
facet normal 0.0 0.0 1.0
outer loop
vertex 216.789460234518 177.585976691652 105.3
vertex 217.84179464708 175.683342185886 105.3
vertex 217.84179464708 177.447434237941 105.3
endloop
endfacet
facet normal 0.0 0.0 1.0
outer loop
vertex 217.84179464708 177.447434237941 105.3
vertex 217.84179464708 175.683342185886 105.3
vertex 219.350709680028 175.881994618621 105.3
endloop
endfacet
facet normal 0.0 0.0 1.0
outer loop
vertex 217.84179464708 177.447434237941 105.3
vertex 219.350709680028 175.881994618621 105.3
vertex 218.894129059643 177.585976691652 105.3
endloop
endfacet
facet normal 0.0 0.0 1.0
outer loop
vertex 218.894129059643 177.585976691652 105.3
vertex 219.350709680028 175.881994618621 105.3
vertex 219.874748621053 177.992162613516 105.3
endloop
endfacet
facet normal 0.0 0.0 1.0
outer loop
vertex 219.874748621053 177.992162613516 105.3
vertex 219.350709680028 175.881994618621 105.3
vertex 220.75679464708 176.464414081823 105.3
endloop
endfacet
facet normal 0.0 0.0 1.0
outer loop
vertex 219.874748621053 177.992162613516 105.3
vertex 220.75679464708 176.464414081823 105.3
vertex 220.716825728753 178.638311104214 105.3
endloop
endfacet
facet normal 0.0 0.0 1.0
outer loop
vertex 220.716825728753 178.638311104214 105.3
vertex 220.75679464708 176.464414081823 105.3
vertex 221.36297421945 179.480388211914 105.3
endloop
endfacet
facet normal 0.0 0.0 1.0
outer loop
vertex 221.36297421945 179.480388211914 105.3
vertex 220.75679464708 176.464414081823 105.3
vertex 221.964227181398 177.390909651569 105.3
endloop
endfacet
facet normal 0.0 0.0 1.0
outer loop
vertex 221.36297421945 179.480388211914 105.3
vertex 221.964227181398 177.390909651569 105.3
vertex 221.769160141314 180.461007773324 105.3
endloop
endfacet
facet normal 0.0 0.0 1.0
outer loop
vertex 221.769160141314 180.461007773324 105.3
vertex 221.964227181398 177.390909651569 105.3
vertex 221.907702595026 181.513342185886 105.3
endloop
endfacet
facet normal 0.0 0.0 1.0
outer loop
vertex 213.719362112763 185.635774720203 105.3
vertex 213.914429152846 182.565676598448 105.3
vertex 214.92679464708 186.562270289949 105.3
endloop
endfacet
facet normal 0.0 0.0 1.0
outer loop
vertex 213.914429152846 182.565676598448 105.3
vertex 213.719362112763 185.635774720203 105.3
vertex 213.775886699135 181.513342185886 105.3
endloop
endfacet
facet normal 0.0 0.0 1.0
outer loop
vertex 214.92679464708 186.562270289949 105.3
vertex 213.914429152846 182.565676598448 105.3
vertex 214.320615074711 183.546296159858 105.3
endloop
endfacet
facet normal 0.0 0.0 1.0
outer loop
vertex 214.92679464708 186.562270289949 105.3
vertex 214.320615074711 183.546296159858 105.3
vertex 214.966763565408 184.388373267558 105.3
endloop
endfacet
facet normal 0.0 0.0 1.0
outer loop
vertex 214.92679464708 186.562270289949 105.3
vertex 214.966763565408 184.388373267558 105.3
vertex 216.332879614132 187.144689753151 105.3
endloop
endfacet
facet normal 0.0 0.0 1.0
outer loop
vertex 216.332879614132 187.144689753151 105.3
vertex 214.966763565408 184.388373267558 105.3
vertex 215.808840673108 185.034521758256 105.3
endloop
endfacet
facet normal 0.0 0.0 1.0
outer loop
vertex 216.332879614132 187.144689753151 105.3
vertex 215.808840673108 185.034521758256 105.3
vertex 216.789460234518 185.44070768012 105.3
endloop
endfacet
facet normal 0.0 0.0 1.0
outer loop
vertex 216.332879614132 187.144689753151 105.3
vertex 216.789460234518 185.44070768012 105.3
vertex 217.84179464708 187.343342185886 105.3
endloop
endfacet
facet normal 0.0 0.0 1.0
outer loop
vertex 217.84179464708 187.343342185886 105.3
vertex 216.789460234518 185.44070768012 105.3
vertex 217.84179464708 185.579250133831 105.3
endloop
endfacet
facet normal 0.0 0.0 1.0
outer loop
vertex 217.84179464708 187.343342185886 105.3
vertex 217.84179464708 185.579250133831 105.3
vertex 218.894129059643 185.44070768012 105.3
endloop
endfacet
facet normal 0.0 0.0 1.0
outer loop
vertex 217.84179464708 187.343342185886 105.3
vertex 218.894129059643 185.44070768012 105.3
vertex 219.350709680028 187.144689753151 105.3
endloop
endfacet
facet normal 0.0 0.0 1.0
outer loop
vertex 219.350709680028 187.144689753151 105.3
vertex 218.894129059643 185.44070768012 105.3
vertex 219.874748621053 185.034521758256 105.3
endloop
endfacet
facet normal 0.0 0.0 1.0
outer loop
vertex 219.350709680028 187.144689753151 105.3
vertex 219.874748621053 185.034521758256 105.3
vertex 220.75679464708 186.562270289949 105.3
endloop
endfacet
facet normal 0.0 0.0 1.0
outer loop
vertex 220.75679464708 186.562270289949 105.3
vertex 219.874748621053 185.034521758256 105.3
vertex 220.716825728753 184.388373267558 105.3
endloop
endfacet
facet normal 0.0 0.0 1.0
outer loop
vertex 220.75679464708 186.562270289949 105.3
vertex 220.716825728753 184.388373267558 105.3
vertex 221.36297421945 183.546296159858 105.3
endloop
endfacet
facet normal 0.0 0.0 1.0
outer loop
vertex 220.75679464708 186.562270289949 105.3
vertex 221.36297421945 183.546296159858 105.3
vertex 221.964227181398 185.635774720203 105.3
endloop
endfacet
facet normal 0.0 0.0 1.0
outer loop
vertex 221.964227181398 185.635774720203 105.3
vertex 221.36297421945 183.546296159858 105.3
vertex 221.769160141314 182.565676598448 105.3
endloop
endfacet
facet normal 0.0 0.0 1.0
outer loop
vertex 221.964227181398 185.635774720203 105.3
vertex 221.769160141314 182.565676598448 105.3
vertex 221.907702595026 181.513342185886 105.3
endloop
endfacet
facet normal 0.0 0.0 1.0
outer loop
vertex 221.964227181398 185.635774720203 105.3
vertex 221.907702595026 181.513342185886 105.3
vertex 221.964227181398 177.390909651569 105.3
endloop
endfacet
facet normal 0.0 0.0 1.0
outer loop
vertex 221.964227181398 185.635774720203 105.3
vertex 221.964227181398 177.390909651569 105.3
vertex 222.890722751143 178.598342185886 105.3
endloop
endfacet
facet normal 0.0 0.0 1.0
outer loop
vertex 221.964227181398 185.635774720203 105.3
vertex 222.890722751143 178.598342185886 105.3
vertex 222.890722751143 184.428342185886 105.3
endloop
endfacet
facet normal 0.0 0.0 1.0
outer loop
vertex 222.890722751143 184.428342185886 105.3
vertex 222.890722751143 178.598342185886 105.3
vertex 223.473142214345 180.004427152938 105.3
endloop
endfacet
facet normal 0.0 0.0 1.0
outer loop
vertex 222.890722751143 184.428342185886 105.3
vertex 223.473142214345 180.004427152938 105.3
vertex 223.473142214345 183.022257218834 105.3
endloop
endfacet
facet normal 0.0 0.0 1.0
outer loop
vertex 223.473142214345 183.022257218834 105.3
vertex 223.473142214345 180.004427152938 105.3
vertex 223.67179464708 181.513342185886 105.3
endloop
endfacet
facet normal -1.0 -1.0069554182081e-015 0.0
outer loop
vertex 212.01179464708 181.513342185886 105.3
vertex 212.210447079815 180.004427152938 47.0000000000001
vertex 212.210447079815 180.004427152938 105.3
endloop
endfacet
facet normal -0.965925826289064 -0.258819045102537 0.0
outer loop
vertex 212.210447079815 180.004427152938 47.0000000000001
vertex 212.01179464708 181.513342185886 105.3
vertex 212.01179464708 181.513342185886 47.0000000000001
endloop
endfacet
facet normal -0.965925826289064 -0.258819045102537 0.0
outer loop
vertex 212.210447079815 180.004427152938 105.3
vertex 212.792866543017 178.598342185886 47.0000000000001
vertex 212.792866543017 178.598342185886 105.3
endloop
endfacet
facet normal -0.86602540378441 -0.50000000000005 0.0
outer loop
vertex 212.792866543017 178.598342185886 47.0000000000001
vertex 212.210447079815 180.004427152938 105.3
vertex 212.210447079815 180.004427152938 47.0000000000001
endloop
endfacet
facet normal -0.86602540378441 -0.50000000000005 0.0
outer loop
vertex 212.792866543017 178.598342185886 105.3
vertex 213.719362112763 177.390909651569 47.0000000000001
vertex 213.719362112763 177.390909651569 105.3
endloop
endfacet
facet normal -0.707106781186553 -0.707106781186542 0.0
outer loop
vertex 213.719362112763 177.390909651569 47.0000000000001
vertex 212.792866543017 178.598342185886 105.3
vertex 212.792866543017 178.598342185886 47.0000000000001
endloop
endfacet
facet normal -0.500000000000058 -0.866025403784405 0.0
outer loop
vertex 214.92679464708 176.464414081823 105.3
vertex 213.719362112763 177.390909651569 47.0000000000001
vertex 214.92679464708 176.464414081823 47.0000000000001
endloop
endfacet
facet normal -0.707106781186553 -0.707106781186542 0.0
outer loop
vertex 213.719362112763 177.390909651569 47.0000000000001
vertex 214.92679464708 176.464414081823 105.3
vertex 213.719362112763 177.390909651569 105.3
endloop
endfacet
facet normal -0.258819045102539 -0.965925826289063 0.0
outer loop
vertex 216.332879614132 175.881994618621 105.3
vertex 214.92679464708 176.464414081823 47.0000000000001
vertex 216.332879614132 175.881994618621 47.0000000000001
endloop
endfacet
facet normal -0.500000000000058 -0.866025403784405 0.0
outer loop
vertex 214.92679464708 176.464414081823 47.0000000000001
vertex 216.332879614132 175.881994618621 105.3
vertex 214.92679464708 176.464414081823 105.3
endloop
endfacet
facet normal 0.707106781186553 -0.707106781186542 -3.92375139344309e-020
outer loop
vertex 221.964227181398 177.390909651569 105.3
vertex 220.75679464708 176.464414081823 65.8364275578328
vertex 221.964227181398 177.390909651569 65.4939864698149
endloop
endfacet
facet normal 0.500000000000069 -0.866025403784399 -4.90110699902526e-019
outer loop
vertex 220.75679464708 176.464414081823 65.8364275578328
vertex 221.964227181398 177.390909651569 105.3
vertex 220.75679464708 176.464414081823 105.3
endloop
endfacet
facet normal 0.965925826289064 -0.258819045102537 1.01537368813136e-019
outer loop
vertex 223.473142214345 180.004427152938 47.0000000000001
vertex 222.890722751143 178.598342185886 58.6600000000001
vertex 222.890722751143 178.598342185886 47.0000000000001
endloop
endfacet
facet normal 0.923879532511273 -0.382683432365122 2.01337405094402e-019
outer loop
vertex 222.890722751143 178.598342185886 58.6600000000001
vertex 223.473142214345 180.004427152938 47.0000000000001
vertex 222.890722751143 178.598342185886 64.4900000000001
endloop
endfacet
facet normal 0.898246851919169 -0.439491288898089 2.58105129630953e-019
outer loop
vertex 222.890722751143 178.598342185886 64.4900000000001
vertex 223.473142214345 180.004427152938 47.0000000000001
vertex 222.890722751143 178.598342185886 105.3
endloop
endfacet
facet normal 0.86602540378441 -0.50000000000005 3.19383357194968e-019
outer loop
vertex 222.890722751143 178.598342185886 105.3
vertex 223.473142214345 180.004427152938 47.0000000000001
vertex 223.473142214345 180.004427152938 105.3
endloop
endfacet
facet normal 1.0 -1.0069554182081e-015 0.0
outer loop
vertex 223.67179464708 181.513342185886 47.0000000000001
vertex 223.473142214345 180.004427152938 105.3
vertex 223.473142214345 180.004427152938 47.0000000000001
endloop
endfacet
facet normal 0.965925826289064 -0.258819045102537 1.01537368813136e-019
outer loop
vertex 223.473142214345 180.004427152938 105.3
vertex 223.67179464708 181.513342185886 47.0000000000001
vertex 223.67179464708 181.513342185886 105.3
endloop
endfacet
facet normal 0.965925826289064 0.258819045102536 0.0
outer loop
vertex 223.473142214345 183.022257218834 47.0000000000001
vertex 223.67179464708 181.513342185886 105.3
vertex 223.67179464708 181.513342185886 47.0000000000001
endloop
endfacet
facet normal 1.0 -1.0069554182081e-015 0.0
outer loop
vertex 223.67179464708 181.513342185886 105.3
vertex 223.473142214345 183.022257218834 47.0000000000001
vertex 223.473142214345 183.022257218834 105.3
endloop
endfacet
facet normal 0.86602540378441 0.50000000000005 0.0
outer loop
vertex 222.890722751143 184.428342185886 47.0000000000001
vertex 223.473142214345 183.022257218834 105.3
vertex 223.473142214345 183.022257218834 47.0000000000001
endloop
endfacet
facet normal 0.965925826289064 0.258819045102536 0.0
outer loop
vertex 223.473142214345 183.022257218834 105.3
vertex 222.890722751143 184.428342185886 47.0000000000001
vertex 222.890722751143 184.428342185886 105.3
endloop
endfacet
facet normal 0.707106781186547 0.707106781186548 0.0
outer loop
vertex 221.964227181398 185.635774720203 47.0000000000001
vertex 222.890722751143 184.428342185886 105.3
vertex 222.890722751143 184.428342185886 47.0000000000001
endloop
endfacet
facet normal 0.86602540378441 0.50000000000005 0.0
outer loop
vertex 222.890722751143 184.428342185886 105.3
vertex 221.964227181398 185.635774720203 47.0000000000001
vertex 221.964227181398 185.635774720203 105.3
endloop
endfacet
facet normal 0.500000000000049 0.86602540378441 0.0
outer loop
vertex 220.75679464708 186.562270289949 105.3
vertex 221.964227181398 185.635774720203 47.0000000000001
vertex 220.75679464708 186.562270289949 47.0000000000001
endloop
endfacet
facet normal 0.707106781186547 0.707106781186548 0.0
outer loop
vertex 221.964227181398 185.635774720203 47.0000000000001
vertex 220.75679464708 186.562270289949 105.3
vertex 221.964227181398 185.635774720203 105.3
endloop
endfacet
facet normal 0.258819045102536 0.965925826289064 0.0
outer loop
vertex 219.350709680028 187.144689753151 105.3
vertex 220.75679464708 186.562270289949 47.0000000000001
vertex 219.350709680028 187.144689753151 47.0000000000001
endloop
endfacet
facet normal 0.500000000000049 0.86602540378441 0.0
outer loop
vertex 220.75679464708 186.562270289949 47.0000000000001
vertex 219.350709680028 187.144689753151 105.3
vertex 220.75679464708 186.562270289949 105.3
endloop
endfacet
facet normal -0.965925826289055 0.258819045102572 1.78596064198881e-019
outer loop
vertex 221.769160141314 180.461007773324 105.3
vertex 221.36297421945 179.480388211914 65.0528722612826
vertex 221.36297421945 179.480388211914 105.3
endloop
endfacet
facet normal -0.887113686937858 0.461550979250961 2.89934941717037e-019
outer loop
vertex 221.36297421945 179.480388211914 65.0528722612826
vertex 221.769160141314 180.461007773324 105.3
vertex 221.36297421945 179.480388211914 61.8564361306414
endloop
endfacet
facet normal -0.923879532511271 0.382683432365129 4.31596751677909e-019
outer loop
vertex 221.36297421945 179.480388211914 61.8564361306414
vertex 221.769160141314 180.461007773324 105.3
vertex 221.36297421945 179.480388211914 58.6600000000001
endloop
endfacet
facet normal -0.923879532511271 0.382683432365129 4.31596751677909e-019
outer loop
vertex 221.36297421945 179.480388211914 58.6600000000001
vertex 221.769160141314 180.461007773324 105.3
vertex 221.36297421945 179.480388211914 47.0000000000001
endloop
endfacet
facet normal -0.923879532511271 0.382683432365129 4.31596751677909e-019
outer loop
vertex 221.36297421945 179.480388211914 47.0000000000001
vertex 221.769160141314 180.461007773324 105.3
vertex 221.769160141314 180.461007773324 47.0000000000001
endloop
endfacet
facet normal -0.923879532511271 0.382683432365129 4.31596751677909e-019
outer loop
vertex 221.769160141314 180.461007773324 47.0000000000001
vertex 221.769160141314 180.461007773324 105.3
vertex 221.769160141314 180.461007773324 58.6600000000001
endloop
endfacet
facet normal 0.0 1.0 0.0
outer loop
vertex 217.84179464708 187.343342185886 105.3
vertex 219.350709680028 187.144689753151 47.0000000000001
vertex 217.84179464708 187.343342185886 47.0000000000001
endloop
endfacet
facet normal 0.258819045102536 0.965925826289064 0.0
outer loop
vertex 219.350709680028 187.144689753151 47.0000000000001
vertex 217.84179464708 187.343342185886 105.3
vertex 219.350709680028 187.144689753151 105.3
endloop
endfacet
facet normal -0.258819045102539 0.965925826289063 0.0
outer loop
vertex 216.332879614132 187.144689753151 105.3
vertex 217.84179464708 187.343342185886 47.0000000000001
vertex 216.332879614132 187.144689753151 47.0000000000001
endloop
endfacet
facet normal 0.0 1.0 0.0
outer loop
vertex 217.84179464708 187.343342185886 47.0000000000001
vertex 216.332879614132 187.144689753151 105.3
vertex 217.84179464708 187.343342185886 105.3
endloop
endfacet
facet normal -0.500000000000052 0.866025403784409 0.0
outer loop
vertex 214.92679464708 186.562270289949 105.3
vertex 216.332879614132 187.144689753151 47.0000000000001
vertex 214.92679464708 186.562270289949 47.0000000000001
endloop
endfacet
facet normal -0.258819045102539 0.965925826289063 0.0
outer loop
vertex 216.332879614132 187.144689753151 47.0000000000001
vertex 214.92679464708 186.562270289949 105.3
vertex 216.332879614132 187.144689753151 105.3
endloop
endfacet
facet normal -0.707106781186548 0.707106781186548 0.0
outer loop
vertex 213.719362112763 185.635774720203 105.3
vertex 214.92679464708 186.562270289949 47.0000000000001
vertex 213.719362112763 185.635774720203 47.0000000000001
endloop
endfacet
facet normal -0.500000000000052 0.866025403784409 0.0
outer loop
vertex 214.92679464708 186.562270289949 47.0000000000001
vertex 213.719362112763 185.635774720203 105.3
vertex 214.92679464708 186.562270289949 105.3
endloop
endfacet
facet normal -0.707106781186548 0.707106781186548 0.0
outer loop
vertex 213.719362112763 185.635774720203 105.3
vertex 212.792866543017 184.428342185886 47.0000000000001
vertex 212.792866543017 184.428342185886 105.3
endloop
endfacet
facet normal -0.86602540378441 0.50000000000005 0.0
outer loop
vertex 212.792866543017 184.428342185886 47.0000000000001
vertex 213.719362112763 185.635774720203 105.3
vertex 213.719362112763 185.635774720203 47.0000000000001
endloop
endfacet
facet normal -0.86602540378441 0.50000000000005 0.0
outer loop
vertex 212.792866543017 184.428342185886 105.3
vertex 212.210447079815 183.022257218834 47.0000000000001
vertex 212.210447079815 183.022257218834 105.3
endloop
endfacet
facet normal -0.965925826289064 0.258819045102536 0.0
outer loop
vertex 212.210447079815 183.022257218834 47.0000000000001
vertex 212.792866543017 184.428342185886 105.3
vertex 212.792866543017 184.428342185886 47.0000000000001
endloop
endfacet
facet normal -0.965925826289064 0.258819045102536 0.0
outer loop
vertex 212.210447079815 183.022257218834 105.3
vertex 212.01179464708 181.513342185886 47.0000000000001
vertex 212.01179464708 181.513342185886 105.3
endloop
endfacet
facet normal -1.0 -1.0069554182081e-015 0.0
outer loop
vertex 212.01179464708 181.513342185886 47.0000000000001
vertex 212.210447079815 183.022257218834 105.3
vertex 212.210447079815 183.022257218834 47.0000000000001
endloop
endfacet
facet normal 0.216222093927348 0.976344204723761 9.12773636175393e-020
outer loop
vertex 216.789460234518 177.585976691652 58.6600000000001
vertex 217.84179464708 177.447434237941 47.0000000000001
vertex 216.789460234518 177.585976691652 47.0000000000001
endloop
endfacet
facet normal 0.130526192220115 0.991444861373802 8.043682925951e-020
outer loop
vertex 217.84179464708 177.447434237941 47.0000000000001
vertex 216.789460234518 177.585976691652 58.6600000000001
vertex 217.84179464708 177.447434237941 58.6600000000001
endloop
endfacet
facet normal 0.130526192220115 0.991444861373802 8.043682925951e-020
outer loop
vertex 217.84179464708 177.447434237941 58.6600000000001
vertex 216.789460234518 177.585976691652 58.6600000000001
vertex 216.789460234518 177.585976691652 105.3
endloop
endfacet
facet normal 0.130526192220115 0.991444861373802 8.043682925951e-020
outer loop
vertex 217.84179464708 177.447434237941 58.6600000000001
vertex 216.789460234518 177.585976691652 105.3
vertex 217.84179464708 177.447434237941 61.8564361306414
endloop
endfacet
facet normal 0.130526192220115 0.991444861373802 8.043682925951e-020
outer loop
vertex 217.84179464708 177.447434237941 61.8564361306414
vertex 216.789460234518 177.585976691652 105.3
vertex 217.84179464708 177.447434237941 65.0528722612826
endloop
endfacet
facet normal 0.0438419702960694 0.999038478558538 5.40352709157173e-020
outer loop
vertex 217.84179464708 177.447434237941 65.0528722612826
vertex 216.789460234518 177.585976691652 105.3
vertex 217.84179464708 177.447434237941 105.3
endloop
endfacet
facet normal 0.229513839761528 -0.973305397785258 -1.87491800982821e-020
outer loop
vertex 219.350709680028 175.881994618621 65.4939864698155
vertex 217.84179464708 175.683342185886 105.3
vertex 217.84179464708 175.683342185886 64.4900000000001
endloop
endfacet
facet normal 8.9111098956469e-018 -1.0 1.3074013186592e-019
outer loop
vertex 217.84179464708 175.683342185886 105.3
vertex 219.350709680028 175.881994618621 65.4939864698155
vertex 219.350709680028 175.881994618621 105.3
endloop
endfacet
facet normal 0.0 1.0 4.05654577441918e-020
outer loop
vertex 217.84179464708 177.447434237941 105.3
vertex 218.894129059643 177.585976691652 65.0528722612826
vertex 217.84179464708 177.447434237941 65.0528722612826
endloop
endfacet
facet normal -0.258819045102572 0.965925826289055 0.0
outer loop
vertex 218.894129059643 177.585976691652 65.0528722612826
vertex 217.84179464708 177.447434237941 105.3
vertex 218.894129059643 177.585976691652 105.3
endloop
endfacet
facet normal -0.258819045102572 0.965925826289055 0.0
outer loop
vertex 218.894129059643 177.585976691652 105.3
vertex 219.874748621053 177.992162613516 65.0528722612826
vertex 218.894129059643 177.585976691652 65.0528722612826
endloop
endfacet
facet normal -0.500000000000027 0.866025403784423 0.0
outer loop
vertex 219.874748621053 177.992162613516 65.0528722612826
vertex 218.894129059643 177.585976691652 105.3
vertex 219.874748621053 177.992162613516 105.3
endloop
endfacet
facet normal -0.500000000000027 0.866025403784423 0.0
outer loop
vertex 219.874748621053 177.992162613516 105.3
vertex 220.716825728753 178.638311104214 65.0528722612826
vertex 219.874748621053 177.992162613516 65.0528722612826
endloop
endfacet
facet normal -0.707106781186547 0.707106781186549 2.67044293699456e-033
outer loop
vertex 220.716825728753 178.638311104214 65.0528722612826
vertex 219.874748621053 177.992162613516 105.3
vertex 220.716825728753 178.638311104214 105.3
endloop
endfacet
facet normal -0.866025403784423 0.500000000000028 2.17660491517332e-019
outer loop
vertex 221.36297421945 179.480388211914 105.3
vertex 220.716825728753 178.638311104214 65.0528722612826
vertex 220.716825728753 178.638311104214 105.3
endloop
endfacet
facet normal -0.707106781186547 0.707106781186549 2.67044293699456e-033
outer loop
vertex 220.716825728753 178.638311104214 65.0528722612826
vertex 221.36297421945 179.480388211914 105.3
vertex 221.36297421945 179.480388211914 65.0528722612826
endloop
endfacet
facet normal -0.379612649869865 0.916466007764108 0.126429002494271
outer loop
vertex 219.874748621053 177.992162613516 65.0528722612826
vertex 218.722089540173 177.955672731434 61.8564361306414
vertex 218.894129059643 177.585976691652 65.0528722612826
endloop
endfacet
facet normal -0.492893889349335 0.853717259093265 0.167995402819152
outer loop
vertex 219.874748621053 177.992162613516 65.0528722612826
vertex 219.602384433265 178.463911224927 61.8564361306414
vertex 218.722089540173 177.955672731434 61.8564361306414
endloop
endfacet
facet normal -0.50000000000016 0.866025403784346 1.33651195751016e-017
outer loop
vertex 221.36297421945 179.480388211914 65.0528722612826
vertex 221.36297421945 179.480388211914 61.8564361306414
vertex 220.482679326358 178.97214971842 61.8564361306414
endloop
endfacet
facet normal -0.787543185916424 0.604303140752631 0.120803329395815
outer loop
vertex 221.36297421945 179.480388211914 65.0528722612826
vertex 220.482679326358 178.97214971842 61.8564361306414
vertex 220.716825728753 178.638311104214 65.0528722612826
endloop
endfacet
facet normal -0.500000000000007 0.866025403784435 -1.33651195751031e-017
outer loop
vertex 217.84179464708 177.447434237941 65.0528722612826
vertex 218.722089540173 177.955672731434 61.8564361306414
vertex 217.84179464708 177.447434237941 61.8564361306414
endloop
endfacet
facet normal -0.129570278520331 0.984183975957261 0.120803329395846
outer loop
vertex 218.894129059643 177.585976691652 65.0528722612826
vertex 218.722089540173 177.955672731434 61.8564361306414
vertex 217.84179464708 177.447434237941 65.0528722612826
endloop
endfacet
facet normal -0.492893889349334 0.853717259093265 0.167995402819152
outer loop
vertex 219.874748621053 177.992162613516 65.0528722612826
vertex 220.482679326358 178.97214971842 61.8564361306414
vertex 219.602384433265 178.463911224927 61.8564361306414
endloop
endfacet
facet normal -0.603876519493744 0.786987202267253 0.126429002494222
outer loop
vertex 220.716825728753 178.638311104214 65.0528722612826
vertex 220.482679326358 178.97214971842 61.8564361306414
vertex 219.874748621053 177.992162613516 65.0528722612826
endloop
endfacet
facet normal 0.500000000000069 -0.866025403784399 -4.90110699902526e-019
outer loop
vertex 220.75679464708 176.464414081823 65.8364275578328
vertex 219.350709680028 175.881994618621 105.3
vertex 219.350709680028 175.881994618621 65.4939864698155
endloop
endfacet
facet normal 0.258819045102536 -0.965925826289064 -1.02287065720339e-019
outer loop
vertex 219.350709680028 175.881994618621 105.3
vertex 220.75679464708 176.464414081823 65.8364275578328
vertex 220.75679464708 176.464414081823 105.3
endloop
endfacet
facet normal 0.898246851919169 -0.439491288898089 2.58105129630953e-019
outer loop
vertex 222.890722751143 178.598342185886 64.4900000000001
vertex 221.964227181398 177.390909651569 105.3
vertex 221.964227181398 177.390909651569 65.4939864698149
endloop
endfacet
facet normal 0.707106781186553 -0.707106781186542 -3.92375139344309e-020
outer loop
vertex 221.964227181398 177.390909651569 105.3
vertex 222.890722751143 178.598342185886 64.4900000000001
vertex 222.890722751143 178.598342185886 105.3
endloop
endfacet
facet normal -2.11094254772066e-014 1.15487897390105e-013 1.0
outer loop
vertex 219.350709680028 175.881994618621 58.6600000000001
vertex 217.84179464708 177.447434237941 58.6600000000001
vertex 217.84179464708 175.683342185886 58.6600000000001
endloop
endfacet
facet normal -2.11094254772066e-014 1.15487897390105e-013 1.0
outer loop
vertex 217.84179464708 177.447434237941 58.6600000000001
vertex 219.350709680028 175.881994618621 58.6600000000001
vertex 218.894129059643 177.585976691652 58.6600000000001
endloop
endfacet
facet normal -2.11094254772066e-014 1.15487897390105e-013 1.0
outer loop
vertex 218.894129059643 177.585976691652 58.6600000000001
vertex 219.350709680028 175.881994618621 58.6600000000001
vertex 219.874748621053 177.992162613516 58.6600000000001
endloop
endfacet
facet normal -2.11094254772066e-014 1.15487897390105e-013 1.0
outer loop
vertex 219.874748621053 177.992162613516 58.6600000000001
vertex 219.350709680028 175.881994618621 58.6600000000001
vertex 220.75679464708 176.464414081823 58.6600000000001
endloop
endfacet
facet normal -2.11094254772066e-014 1.15487897390105e-013 1.0
outer loop
vertex 219.874748621053 177.992162613516 58.6600000000001
vertex 220.75679464708 176.464414081823 58.6600000000001
vertex 220.716825728753 178.638311104214 58.6599999999989
endloop
endfacet
facet normal -2.11094254772066e-014 1.15487897390105e-013 1.0
outer loop
vertex 220.716825728753 178.638311104214 58.6599999999989
vertex 220.75679464708 176.464414081823 58.6600000000001
vertex 221.36297421945 179.480388211914 58.6600000000001
endloop
endfacet
facet normal -2.11094254772066e-014 1.15487897390105e-013 1.0
outer loop
vertex 221.36297421945 179.480388211914 58.6600000000001
vertex 220.75679464708 176.464414081823 58.6600000000001
vertex 221.964227181398 177.390909651569 58.6600000000001
endloop
endfacet
facet normal -2.11094254772066e-014 1.15487897390105e-013 1.0
outer loop
vertex 221.36297421945 179.480388211914 58.6600000000001
vertex 221.964227181398 177.390909651569 58.6600000000001
vertex 222.890722751143 178.598342185886 58.6600000000001
endloop
endfacet
facet normal 1.0 0.0 0.0
outer loop
vertex 217.84179464708 177.447434237941 58.6600000000001
vertex 217.84179464708 175.683342185886 64.4900000000001
vertex 217.84179464708 175.683342185886 58.6600000000001
endloop
endfacet
facet normal 1.0 0.0 0.0
outer loop
vertex 217.84179464708 175.683342185886 64.4900000000001
vertex 217.84179464708 177.447434237941 58.6600000000001
vertex 217.84179464708 177.447434237941 61.8564361306414
endloop
endfacet
facet normal -0.130526192220049 -0.991444861373811 0.0
outer loop
vertex 217.84179464708 175.683342185886 58.6600000000001
vertex 216.332879614132 175.881994618621 47.0000000000001
vertex 217.84179464708 175.683342185886 47.0000000000001
endloop
endfacet
facet normal -0.258819045102539 -0.965925826289063 0.0
outer loop
vertex 216.332879614132 175.881994618621 47.0000000000001
vertex 217.84179464708 175.683342185886 58.6600000000001
vertex 216.332879614132 175.881994618621 105.3
endloop
endfacet
facet normal -0.258819045102539 -0.965925826289063 0.0
outer loop
vertex 216.332879614132 175.881994618621 105.3
vertex 217.84179464708 175.683342185886 58.6600000000001
vertex 217.84179464708 175.683342185886 64.4900000000001
endloop
endfacet
facet normal -0.258819045102539 -0.965925826289063 0.0
outer loop
vertex 216.332879614132 175.881994618621 105.3
vertex 217.84179464708 175.683342185886 64.4900000000001
vertex 217.84179464708 175.683342185886 105.3
endloop
endfacet
facet normal 6.64254538585715e-015 -1.14930617493502e-014 -1.0
outer loop
vertex 212.210447079815 183.022257218834 47.0000000000001
vertex 212.210447079815 180.004427152938 47.0000000000001
vertex 212.01179464708 181.513342185886 47.0000000000001
endloop
endfacet
facet normal 6.64254538585715e-015 -1.14930617493502e-014 -1.0
outer loop
vertex 212.210447079815 180.004427152938 47.0000000000001
vertex 212.210447079815 183.022257218834 47.0000000000001
vertex 212.792866543017 184.428342185886 47.0000000000001
endloop
endfacet
facet normal 6.64254538585715e-015 -1.14930617493502e-014 -1.0
outer loop
vertex 212.210447079815 180.004427152938 47.0000000000001
vertex 212.792866543017 184.428342185886 47.0000000000001
vertex 212.792866543017 178.598342185886 47.0000000000001
endloop
endfacet
facet normal 6.64254538585715e-015 -1.14930617493502e-014 -1.0
outer loop
vertex 212.792866543017 178.598342185886 47.0000000000001
vertex 212.792866543017 184.428342185886 47.0000000000001
vertex 213.719362112763 185.635774720203 47.0000000000001
endloop
endfacet
facet normal 6.64254538585715e-015 -1.14930617493502e-014 -1.0
outer loop
vertex 212.792866543017 178.598342185886 47.0000000000001
vertex 213.719362112763 185.635774720203 47.0000000000001
vertex 213.719362112763 177.390909651569 47.0000000000001
endloop
endfacet
facet normal 6.64254538585715e-015 -1.14930617493502e-014 -1.0
outer loop
vertex 213.719362112763 177.390909651569 47.0000000000001
vertex 213.719362112763 185.635774720203 47.0000000000001
vertex 214.92679464708 186.562270289949 47.0000000000001
endloop
endfacet
facet normal 6.64254538585715e-015 -1.14930617493502e-014 -1.0
outer loop
vertex 213.719362112763 177.390909651569 47.0000000000001
vertex 214.92679464708 186.562270289949 47.0000000000001
vertex 214.92679464708 176.464414081823 47.0000000000001
endloop
endfacet
facet normal 6.64254538585715e-015 -1.14930617493502e-014 -1.0
outer loop
vertex 214.92679464708 176.464414081823 47.0000000000001
vertex 214.92679464708 186.562270289949 47.0000000000001
vertex 216.332879614132 187.144689753151 47.0000000000001
endloop
endfacet
facet normal 6.64254538585715e-015 -1.14930617493502e-014 -1.0
outer loop
vertex 214.92679464708 176.464414081823 47.0000000000001
vertex 216.332879614132 187.144689753151 47.0000000000001
vertex 216.332879614132 175.881994618621 47.0000000000001
endloop
endfacet
facet normal 6.64254538585715e-015 -1.14930617493502e-014 -1.0
outer loop
vertex 216.332879614132 175.881994618621 47.0000000000001
vertex 216.332879614132 187.144689753151 47.0000000000001
vertex 216.497960234518 178.090869502058 47.0000000000001
endloop
endfacet
facet normal 6.64254538585715e-015 -1.14930617493502e-014 -1.0
outer loop
vertex 216.497960234518 178.090869502058 47.0000000000001
vertex 216.332879614132 187.144689753151 47.0000000000001
vertex 217.84179464708 187.343342185886 47.0000000000001
endloop
endfacet
facet normal 6.64254538585715e-015 -1.14930617493502e-014 -1.0
outer loop
vertex 216.497960234518 178.090869502058 47.0000000000001
vertex 217.84179464708 187.343342185886 47.0000000000001
vertex 221.477660141314 180.96590058373 47.0000000000001
endloop
endfacet
facet normal 6.64254538585715e-015 -1.14930617493502e-014 -1.0
outer loop
vertex 221.477660141314 180.96590058373 47.0000000000001
vertex 217.84179464708 187.343342185886 47.0000000000001
vertex 219.350709680028 187.144689753151 47.0000000000001
endloop
endfacet
facet normal 6.64254538585715e-015 -1.14930617493502e-014 -1.0
outer loop
vertex 221.477660141314 180.96590058373 47.0000000000001
vertex 219.350709680028 187.144689753151 47.0000000000001
vertex 220.75679464708 186.562270289949 47.0000000000001
endloop
endfacet
facet normal 6.64254538585715e-015 -1.14930617493502e-014 -1.0
outer loop
vertex 221.477660141314 180.96590058373 47.0000000000001
vertex 220.75679464708 186.562270289949 47.0000000000001
vertex 221.964227181398 185.635774720203 47.0000000000001
endloop
endfacet
facet normal 6.64254538585715e-015 -1.14930617493502e-014 -1.0
outer loop
vertex 221.477660141314 180.96590058373 47.0000000000001
vertex 221.964227181398 185.635774720203 47.0000000000001
vertex 221.769160141314 180.461007773324 47.0000000000001
endloop
endfacet
facet normal 6.64254538585715e-015 -1.14930617493502e-014 -1.0
outer loop
vertex 216.497960234518 178.090869502058 47.0000000000001
vertex 217.84179464708 175.683342185886 47.0000000000001
vertex 216.332879614132 175.881994618621 47.0000000000001
endloop
endfacet
facet normal 6.64254538585715e-015 -1.14930617493502e-014 -1.0
outer loop
vertex 217.84179464708 175.683342185886 47.0000000000001
vertex 216.497960234518 178.090869502058 47.0000000000001
vertex 216.789460234518 177.585976691652 47.0000000000001
endloop
endfacet
facet normal 6.64254538585715e-015 -1.14930617493502e-014 -1.0
outer loop
vertex 217.84179464708 175.683342185886 47.0000000000001
vertex 216.789460234518 177.585976691652 47.0000000000001
vertex 217.84179464708 177.447434237941 47.0000000000001
endloop
endfacet
facet normal 6.64254538585715e-015 -1.14930617493502e-014 -1.0
outer loop
vertex 217.84179464708 175.683342185886 47.0000000000001
vertex 217.84179464708 177.447434237941 47.0000000000001
vertex 218.894129059643 177.585976691652 47.0000000000001
endloop
endfacet
facet normal 6.64254538585715e-015 -1.14930617493502e-014 -1.0
outer loop
vertex 217.84179464708 175.683342185886 47.0000000000001
vertex 218.894129059643 177.585976691652 47.0000000000001
vertex 219.350709680028 175.881994618619 47.0000000000004
endloop
endfacet
facet normal 6.64254538585715e-015 -1.14930617493502e-014 -1.0
outer loop
vertex 219.350709680028 175.881994618619 47.0000000000004
vertex 218.894129059643 177.585976691652 47.0000000000001
vertex 219.874748621053 177.992162613516 47.0000000000001
endloop
endfacet
facet normal 6.64254538585715e-015 -1.14930617493502e-014 -1.0
outer loop
vertex 219.350709680028 175.881994618619 47.0000000000004
vertex 219.874748621053 177.992162613516 47.0000000000001
vertex 220.75679464708 176.464414081822 47.0000000000004
endloop
endfacet
facet normal 6.64254538585715e-015 -1.14930617493502e-014 -1.0
outer loop
vertex 220.75679464708 176.464414081822 47.0000000000004
vertex 219.874748621053 177.992162613516 47.0000000000001
vertex 220.716825728753 178.638311104214 47.0000000000001
endloop
endfacet
facet normal 6.64254538585715e-015 -1.14930617493502e-014 -1.0
outer loop
vertex 220.75679464708 176.464414081822 47.0000000000004
vertex 220.716825728753 178.638311104214 47.0000000000001
vertex 221.36297421945 179.480388211914 47.0000000000001
endloop
endfacet
facet normal 6.64254538585715e-015 -1.14930617493502e-014 -1.0
outer loop
vertex 220.75679464708 176.464414081822 47.0000000000004
vertex 221.36297421945 179.480388211914 47.0000000000001
vertex 221.964227181398 177.390909651567 47.0000000000004
endloop
endfacet
facet normal 6.64254538585715e-015 -1.14930617493502e-014 -1.0
outer loop
vertex 221.964227181398 177.390909651567 47.0000000000004
vertex 221.36297421945 179.480388211914 47.0000000000001
vertex 221.769160141314 180.461007773324 47.0000000000001
endloop
endfacet
facet normal 6.64254538585715e-015 -1.14930617493502e-014 -1.0
outer loop
vertex 221.964227181398 177.390909651567 47.0000000000004
vertex 221.769160141314 180.461007773324 47.0000000000001
vertex 221.964227181398 185.635774720203 47.0000000000001
endloop
endfacet
facet normal 6.64254538585715e-015 -1.14930617493502e-014 -1.0
outer loop
vertex 221.964227181398 177.390909651567 47.0000000000004
vertex 221.964227181398 185.635774720203 47.0000000000001
vertex 222.890722751143 184.428342185886 47.0000000000001
endloop
endfacet
facet normal 6.64254538585715e-015 -1.14930617493502e-014 -1.0
outer loop
vertex 221.964227181398 177.390909651567 47.0000000000004
vertex 222.890722751143 184.428342185886 47.0000000000001
vertex 222.890722751143 178.598342185886 47.0000000000001
endloop
endfacet
facet normal 6.64254538585715e-015 -1.14930617493502e-014 -1.0
outer loop
vertex 222.890722751143 178.598342185886 47.0000000000001
vertex 222.890722751143 184.428342185886 47.0000000000001
vertex 223.473142214345 183.022257218834 47.0000000000001
endloop
endfacet
facet normal 6.64254538585715e-015 -1.14930617493502e-014 -1.0
outer loop
vertex 222.890722751143 178.598342185886 47.0000000000001
vertex 223.473142214345 183.022257218834 47.0000000000001
vertex 223.473142214345 180.004427152938 47.0000000000001
endloop
endfacet
facet normal 6.64254538585715e-015 -1.14930617493502e-014 -1.0
outer loop
vertex 223.473142214345 180.004427152938 47.0000000000001
vertex 223.473142214345 183.022257218834 47.0000000000001
vertex 223.67179464708 181.513342185886 47.0000000000001
endloop
endfacet
facet normal -0.130526192220115 0.991444861373802 2.17571705247729e-019
outer loop
vertex 217.84179464708 177.447434237941 58.6600000000001
vertex 218.894129059643 177.585976691652 47.0000000000001
vertex 217.84179464708 177.447434237941 47.0000000000001
endloop
endfacet
facet normal -0.130526192220115 0.991444861373802 2.17571705247729e-019
outer loop
vertex 218.894129059643 177.585976691652 47.0000000000001
vertex 217.84179464708 177.447434237941 58.6600000000001
vertex 218.894129059643 177.585976691652 58.6600000000001
endloop
endfacet
facet normal -0.608761429008736 0.793353340291223 -1.76576763370565e-019
outer loop
vertex 219.874748621053 177.992162613516 58.6600000000001
vertex 220.716825728753 178.638311104214 47.0000000000001
vertex 219.874748621053 177.992162613516 47.0000000000001
endloop
endfacet
facet normal -0.608761429008736 0.793353340291223 -1.76576763370565e-019
outer loop
vertex 220.716825728753 178.638311104214 47.0000000000001
vertex 219.874748621053 177.992162613516 58.6600000000001
vertex 220.716825728753 178.638311104214 58.6599999999989
endloop
endfacet
facet normal -0.382683432365129 0.923879532511271 0.0
outer loop
vertex 218.894129059643 177.585976691652 58.6600000000001
vertex 219.874748621053 177.992162613516 47.0000000000001
vertex 218.894129059643 177.585976691652 47.0000000000001
endloop
endfacet
facet normal -0.382683432365129 0.923879532511271 0.0
outer loop
vertex 219.874748621053 177.992162613516 47.0000000000001
vertex 218.894129059643 177.585976691652 58.6600000000001
vertex 219.874748621053 177.992162613516 58.6600000000001
endloop
endfacet
facet normal 0.500000000000053 -0.866025403784408 1.1182556106914e-013
outer loop
vertex 220.75679464708 176.464414081822 47.0000000000004
vertex 219.350709680028 175.881994618621 58.6600000000001
vertex 219.350709680028 175.881994618619 47.0000000000004
endloop
endfacet
facet normal 0.258819045102329 -0.96592582628912 8.56783320661092e-014
outer loop
vertex 219.350709680028 175.881994618621 58.6600000000001
vertex 220.75679464708 176.464414081822 47.0000000000004
vertex 220.75679464708 176.464414081823 58.6600000000001
endloop
endfacet
facet normal 0.258819045102321 -0.965925826289122 8.56783320661074e-014
outer loop
vertex 219.350709680028 175.881994618619 47.0000000000004
vertex 217.84179464708 175.683342185886 58.6600000000001
vertex 217.84179464708 175.683342185886 47.0000000000001
endloop
endfacet
facet normal 0.130526192219624 -0.991444861373867 5.60362196976331e-014
outer loop
vertex 217.84179464708 175.683342185886 58.6600000000001
vertex 219.350709680028 175.881994618619 47.0000000000004
vertex 219.350709680028 175.881994618621 58.6600000000001
endloop
endfacet
facet normal -0.793353340291221 0.608761429008738 2.40580453940274e-018
outer loop
vertex 221.36297421945 179.480388211914 58.6600000000001
vertex 220.716825728753 178.638311104214 47.0000000000001
vertex 220.716825728753 178.638311104214 58.6599999999989
endloop
endfacet
facet normal -0.793353340291221 0.608761429008738 2.40580453940274e-018
outer loop
vertex 220.716825728753 178.638311104214 47.0000000000001
vertex 221.36297421945 179.480388211914 58.6600000000001
vertex 221.36297421945 179.480388211914 47.0000000000001
endloop
endfacet
facet normal 0.793353340291407 -0.608761429008497 4.72797719583412e-014
outer loop
vertex 222.890722751143 178.598342185886 47.0000000000001
vertex 221.964227181398 177.390909651569 58.6600000000001
vertex 221.964227181398 177.390909651567 47.0000000000004
endloop
endfacet
facet normal 0.707106781186684 -0.707106781186411 7.82509796406693e-014
outer loop
vertex 221.964227181398 177.390909651569 58.6600000000001
vertex 222.890722751143 178.598342185886 47.0000000000001
vertex 222.890722751143 178.598342185886 58.6600000000001
endloop
endfacet
facet normal 0.707106781186684 -0.707106781186411 7.82509796406693e-014
outer loop
vertex 221.964227181398 177.390909651569 58.6600000000001
vertex 220.75679464708 176.464414081822 47.0000000000004
vertex 221.964227181398 177.390909651567 47.0000000000004
endloop
endfacet
facet normal 0.500000000000053 -0.866025403784408 1.1182556106914e-013
outer loop
vertex 220.75679464708 176.464414081822 47.0000000000004
vertex 221.964227181398 177.390909651569 58.6600000000001
vertex 220.75679464708 176.464414081823 58.6600000000001
endloop
endfacet
facet normal 0.500000000000031 0.866025403784421 5.59169043050022e-020
outer loop
vertex 215.808840673108 177.992162613516 105.3
vertex 216.789460234518 177.585976691652 58.6600000000001
vertex 215.808840673108 177.992162613516 58.6600000000001
endloop
endfacet
facet normal 0.216222093927348 0.976344204723761 9.12773636175393e-020
outer loop
vertex 216.789460234518 177.585976691652 58.6600000000001
vertex 215.808840673108 177.992162613516 105.3
vertex 216.789460234518 177.585976691652 105.3
endloop
endfacet
facet normal 0.707106781186552 0.707106781186544 0.0
outer loop
vertex 214.966763565408 178.638311104214 105.3
vertex 215.808840673108 177.992162613516 58.6600000000001
vertex 214.966763565408 178.638311104214 58.6600000000001
endloop
endfacet
facet normal 0.500000000000031 0.866025403784421 5.59169043050022e-020
outer loop
vertex 215.808840673108 177.992162613516 58.6600000000001
vertex 214.966763565408 178.638311104214 105.3
vertex 215.808840673108 177.992162613516 105.3
endloop
endfacet
facet normal 0.866025403784423 0.500000000000027 0.0
outer loop
vertex 214.320615074711 179.480388211914 58.6600000000001
vertex 214.966763565408 178.638311104214 105.3
vertex 214.966763565408 178.638311104214 58.6600000000001
endloop
endfacet
facet normal 0.707106781186552 0.707106781186544 0.0
outer loop
vertex 214.966763565408 178.638311104214 105.3
vertex 214.320615074711 179.480388211914 58.6600000000001
vertex 214.320615074711 179.480388211914 105.3
endloop
endfacet
facet normal 0.965925826289055 0.258819045102572 0.0
outer loop
vertex 213.914429152846 180.461007773324 58.6600000000001
vertex 214.320615074711 179.480388211914 105.3
vertex 214.320615074711 179.480388211914 58.6600000000001
endloop
endfacet
facet normal 0.866025403784423 0.500000000000027 0.0
outer loop
vertex 214.320615074711 179.480388211914 105.3
vertex 213.914429152846 180.461007773324 58.6600000000001
vertex 213.914429152846 180.461007773324 105.3
endloop
endfacet
facet normal 1.0 1.38122203382528e-015 -4.60443994908437e-020
outer loop
vertex 213.775886699135 181.513342185886 58.6600000000001
vertex 213.914429152846 180.461007773324 105.3
vertex 213.914429152846 180.461007773324 58.6600000000001
endloop
endfacet
facet normal 0.965925826289055 0.258819045102572 0.0
outer loop
vertex 213.914429152846 180.461007773324 105.3
vertex 213.775886699135 181.513342185886 58.6600000000001
vertex 213.775886699135 181.513342185886 105.3
endloop
endfacet
facet normal 0.965925826289055 -0.258819045102571 -4.60443994908433e-020
outer loop
vertex 213.914429152846 182.565676598448 58.6600000000001
vertex 213.775886699135 181.513342185886 105.3
vertex 213.775886699135 181.513342185886 58.6600000000001
endloop
endfacet
facet normal 1.0 1.38122203382528e-015 -4.60443994908437e-020
outer loop
vertex 213.775886699135 181.513342185886 105.3
vertex 213.914429152846 182.565676598448 58.6600000000001
vertex 213.914429152846 182.565676598448 105.3
endloop
endfacet
facet normal 0.866025403784423 -0.500000000000027 0.0
outer loop
vertex 214.320615074711 183.546296159858 58.6600000000001
vertex 213.914429152846 182.565676598448 105.3
vertex 213.914429152846 182.565676598448 58.6600000000001
endloop
endfacet
facet normal 0.965925826289055 -0.258819045102571 -4.60443994908433e-020
outer loop
vertex 213.914429152846 182.565676598448 105.3
vertex 214.320615074711 183.546296159858 58.6600000000001
vertex 214.320615074711 183.546296159858 105.3
endloop
endfacet
facet normal 0.707106781186552 -0.707106781186544 -2.14746588061239e-019
outer loop
vertex 214.966763565408 184.388373267558 58.6600000000001
vertex 214.320615074711 183.546296159858 105.3
vertex 214.320615074711 183.546296159858 58.6600000000001
endloop
endfacet
facet normal 0.866025403784423 -0.500000000000027 0.0
outer loop
vertex 214.320615074711 183.546296159858 105.3
vertex 214.966763565408 184.388373267558 58.6600000000001
vertex 214.966763565408 184.388373267558 105.3
endloop
endfacet
facet normal 0.500000000000031 -0.866025403784421 -2.14746588061238e-019
outer loop
vertex 215.808840673108 185.034521758256 105.3
vertex 214.966763565408 184.388373267558 58.6600000000001
vertex 215.808840673108 185.034521758256 58.6600000000001
endloop
endfacet
facet normal 0.707106781186552 -0.707106781186544 -2.14746588061239e-019
outer loop
vertex 214.966763565408 184.388373267558 58.6600000000001
vertex 215.808840673108 185.034521758256 105.3
vertex 214.966763565408 184.388373267558 105.3
endloop
endfacet
facet normal 0.258819045102571 -0.965925826289055 1.91839928816006e-033
outer loop
vertex 216.789460234518 185.44070768012 105.3
vertex 215.808840673108 185.034521758256 58.6600000000001
vertex 216.789460234518 185.44070768012 58.6600000000001
endloop
endfacet
facet normal 0.500000000000031 -0.866025403784421 -2.14746588061238e-019
outer loop
vertex 215.808840673108 185.034521758256 58.6600000000001
vertex 216.789460234518 185.44070768012 105.3
vertex 215.808840673108 185.034521758256 105.3
endloop
endfacet
facet normal 0.0 -1.0 0.0
outer loop
vertex 217.84179464708 185.579250133831 105.3
vertex 216.789460234518 185.44070768012 58.6600000000001
vertex 217.84179464708 185.579250133831 58.6600000000001
endloop
endfacet
facet normal 0.258819045102571 -0.965925826289055 1.91839928816006e-033
outer loop
vertex 216.789460234518 185.44070768012 58.6600000000001
vertex 217.84179464708 185.579250133831 105.3
vertex 216.789460234518 185.44070768012 105.3
endloop
endfacet
facet normal -0.258819045102572 -0.965925826289055 0.0
outer loop
vertex 218.894129059643 185.44070768012 105.3
vertex 217.84179464708 185.579250133831 58.6600000000001
vertex 218.894129059643 185.44070768012 58.6600000000001
endloop
endfacet
facet normal 0.0 -1.0 0.0
outer loop
vertex 217.84179464708 185.579250133831 58.6600000000001
vertex 218.894129059643 185.44070768012 105.3
vertex 217.84179464708 185.579250133831 105.3
endloop
endfacet
facet normal -0.500000000000027 -0.866025403784423 0.0
outer loop
vertex 219.874748621053 185.034521758256 105.3
vertex 218.894129059643 185.44070768012 58.6600000000001
vertex 219.874748621053 185.034521758256 58.6600000000001
endloop
endfacet
facet normal -0.258819045102572 -0.965925826289055 0.0
outer loop
vertex 218.894129059643 185.44070768012 58.6600000000001
vertex 219.874748621053 185.034521758256 105.3
vertex 218.894129059643 185.44070768012 105.3
endloop
endfacet
facet normal -0.707106781186547 -0.707106781186549 2.79863202292473e-019
outer loop
vertex 220.716825728753 184.388373267558 105.3
vertex 221.36297421945 183.546296159858 58.6600000000001
vertex 221.36297421945 183.546296159858 105.3
endloop
endfacet
facet normal -0.866025403784423 -0.500000000000028 2.79863202292474e-019
outer loop
vertex 221.36297421945 183.546296159858 58.6600000000001
vertex 220.716825728753 184.388373267558 105.3
vertex 220.716825728753 184.388373267558 58.6600000000001
endloop
endfacet
facet normal -0.866025403784423 -0.500000000000028 2.79863202292474e-019
outer loop
vertex 221.36297421945 183.546296159858 105.3
vertex 221.769160141314 182.565676598448 58.6600000000001
vertex 221.769160141314 182.565676598448 105.3
endloop
endfacet
facet normal -0.965925826289055 -0.258819045102571 4.60443994908433e-020
outer loop
vertex 221.769160141314 182.565676598448 58.6600000000001
vertex 221.36297421945 183.546296159858 105.3
vertex 221.36297421945 183.546296159858 58.6600000000001
endloop
endfacet
facet normal -0.965925826289055 -0.258819045102571 4.60443994908433e-020
outer loop
vertex 221.769160141314 182.565676598448 105.3
vertex 221.907702595026 181.513342185886 58.6600000000001
vertex 221.907702595026 181.513342185886 105.3
endloop
endfacet
facet normal -1.0 1.38122203382528e-015 6.97997217239495e-021
outer loop
vertex 221.907702595026 181.513342185886 58.6600000000001
vertex 221.769160141314 182.565676598448 105.3
vertex 221.769160141314 182.565676598448 58.6600000000001
endloop
endfacet
facet normal -1.0 1.38122203382528e-015 6.97997217239495e-021
outer loop
vertex 221.907702595026 181.513342185886 105.3
vertex 221.769160141314 180.461007773324 58.6600000000001
vertex 221.769160141314 180.461007773324 105.3
endloop
endfacet
facet normal -0.953649930925425 0.300918276689756 2.63917031565182e-019
outer loop
vertex 221.769160141314 180.461007773324 58.6600000000001
vertex 221.907702595026 181.513342185886 105.3
vertex 221.907702595026 181.513342185886 58.6600000000001
endloop
endfacet
facet normal -0.707106781186547 -0.707106781186549 2.79863202292473e-019
outer loop
vertex 220.716825728753 184.388373267558 105.3
vertex 219.874748621053 185.034521758256 58.6600000000001
vertex 220.716825728753 184.388373267558 58.6600000000001
endloop
endfacet
facet normal -0.500000000000027 -0.866025403784423 0.0
outer loop
vertex 219.874748621053 185.034521758256 58.6600000000001
vertex 220.716825728753 184.388373267558 105.3
vertex 219.874748621053 185.034521758256 105.3
endloop
endfacet
facet normal -1.63605592857871e-016 2.83373199232271e-016 1.0
outer loop
vertex 213.914429152846 180.461007773324 58.6600000000001
vertex 213.914429152846 182.565676598448 58.6600000000001
vertex 213.775886699135 181.513342185886 58.6600000000001
endloop
endfacet
facet normal -1.63605592857871e-016 2.83373199232271e-016 1.0
outer loop
vertex 213.914429152846 182.565676598448 58.6600000000001
vertex 213.914429152846 180.461007773324 58.6600000000001
vertex 214.320615074711 179.480388211914 58.6600000000001
endloop
endfacet
facet normal -1.63605592857871e-016 2.83373199232271e-016 1.0
outer loop
vertex 213.914429152846 182.565676598448 58.6600000000001
vertex 214.320615074711 179.480388211914 58.6600000000001
vertex 214.320615074711 183.546296159858 58.6600000000001
endloop
endfacet
facet normal -1.63605592857871e-016 2.83373199232271e-016 1.0
outer loop
vertex 214.320615074711 183.546296159858 58.6600000000001
vertex 214.320615074711 179.480388211914 58.6600000000001
vertex 214.966763565408 178.638311104214 58.6600000000001
endloop
endfacet
facet normal -1.63605592857871e-016 2.83373199232271e-016 1.0
outer loop
vertex 214.320615074711 183.546296159858 58.6600000000001
vertex 214.966763565408 178.638311104214 58.6600000000001
vertex 214.966763565408 184.388373267558 58.6600000000001
endloop
endfacet
facet normal -1.63605592857871e-016 2.83373199232271e-016 1.0
outer loop
vertex 214.966763565408 184.388373267558 58.6600000000001
vertex 214.966763565408 178.638311104214 58.6600000000001
vertex 215.808840673108 177.992162613516 58.6600000000001
endloop
endfacet
facet normal -1.63605592857871e-016 2.83373199232271e-016 1.0
outer loop
vertex 214.966763565408 184.388373267558 58.6600000000001
vertex 215.808840673108 177.992162613516 58.6600000000001
vertex 215.808840673108 185.034521758256 58.6600000000001
endloop
endfacet
facet normal -1.63605592857871e-016 2.83373199232271e-016 1.0
outer loop
vertex 215.808840673108 185.034521758256 58.6600000000001
vertex 215.808840673108 177.992162613516 58.6600000000001
vertex 216.497960234518 178.090869502058 58.6600000000001
endloop
endfacet
facet normal -1.63605592857871e-016 2.83373199232271e-016 1.0
outer loop
vertex 216.497960234518 178.090869502058 58.6600000000001
vertex 215.808840673108 177.992162613516 58.6600000000001
vertex 216.789460234518 177.585976691652 58.6600000000001
endloop
endfacet
facet normal -1.63605592857871e-016 2.83373199232271e-016 1.0
outer loop
vertex 216.497960234518 178.090869502058 58.6600000000001
vertex 216.789460234518 185.44070768012 58.6600000000001
vertex 215.808840673108 185.034521758256 58.6600000000001
endloop
endfacet
facet normal -1.63605592857871e-016 2.83373199232271e-016 1.0
outer loop
vertex 216.789460234518 185.44070768012 58.6600000000001
vertex 216.497960234518 178.090869502058 58.6600000000001
vertex 221.477660141314 180.96590058373 58.6600000000001
endloop
endfacet
facet normal -1.63605592857871e-016 2.83373199232271e-016 1.0
outer loop
vertex 216.789460234518 185.44070768012 58.6600000000001
vertex 221.477660141314 180.96590058373 58.6600000000001
vertex 217.84179464708 185.579250133831 58.6600000000001
endloop
endfacet
facet normal -1.63605592857871e-016 2.83373199232271e-016 1.0
outer loop
vertex 217.84179464708 185.579250133831 58.6600000000001
vertex 221.477660141314 180.96590058373 58.6600000000001
vertex 218.894129059643 185.44070768012 58.6600000000001
endloop
endfacet
facet normal -1.63605592857871e-016 2.83373199232271e-016 1.0
outer loop
vertex 218.894129059643 185.44070768012 58.6600000000001
vertex 221.477660141314 180.96590058373 58.6600000000001
vertex 219.874748621053 185.034521758256 58.6600000000001
endloop
endfacet
facet normal -1.63605592857871e-016 2.83373199232271e-016 1.0
outer loop
vertex 219.874748621053 185.034521758256 58.6600000000001
vertex 221.477660141314 180.96590058373 58.6600000000001
vertex 220.716825728753 184.388373267558 58.6600000000001
endloop
endfacet
facet normal -1.63605592857871e-016 2.83373199232271e-016 1.0
outer loop
vertex 220.716825728753 184.388373267558 58.6600000000001
vertex 221.477660141314 180.96590058373 58.6600000000001
vertex 221.36297421945 183.546296159858 58.6600000000001
endloop
endfacet
facet normal -1.63605592857871e-016 2.83373199232271e-016 1.0
outer loop
vertex 221.36297421945 183.546296159858 58.6600000000001
vertex 221.477660141314 180.96590058373 58.6600000000001
vertex 221.769160141314 182.565676598448 58.6600000000001
endloop
endfacet
facet normal -1.63605592857871e-016 2.83373199232271e-016 1.0
outer loop
vertex 221.769160141314 182.565676598448 58.6600000000001
vertex 221.477660141314 180.96590058373 58.6600000000001
vertex 221.769160141314 180.461007773324 58.6600000000001
endloop
endfacet
facet normal -1.63605592857871e-016 2.83373199232271e-016 1.0
outer loop
vertex 221.769160141314 182.565676598448 58.6600000000001
vertex 221.769160141314 180.461007773324 58.6600000000001
vertex 221.907702595026 181.513342185886 58.6600000000001
endloop
endfacet
facet normal 0.499999999999914 -0.866025403784488 0.0
outer loop
vertex 221.477660141314 180.96590058373 58.6600000000001
vertex 216.497960234518 178.090869502058 47.0000000000001
vertex 221.477660141314 180.96590058373 47.0000000000001
endloop
endfacet
facet normal 0.499999999999914 -0.866025403784488 0.0
outer loop
vertex 216.497960234518 178.090869502058 47.0000000000001
vertex 221.477660141314 180.96590058373 58.6600000000001
vertex 216.497960234518 178.090869502058 58.6600000000001
endloop
endfacet
facet normal -0.866025403784488 -0.499999999999914 0.0
outer loop
vertex 221.477660141314 180.96590058373 58.6600000000001
vertex 221.769160141314 180.461007773324 47.0000000000001
vertex 221.769160141314 180.461007773324 58.6600000000001
endloop
endfacet
facet normal -0.866025403784488 -0.499999999999914 0.0
outer loop
vertex 221.769160141314 180.461007773324 47.0000000000001
vertex 221.477660141314 180.96590058373 58.6600000000001
vertex 221.477660141314 180.96590058373 47.0000000000001
endloop
endfacet
facet normal 0.866025403784488 0.499999999999914 0.0
outer loop
vertex 216.497960234518 178.090869502058 47.0000000000001
vertex 216.789460234518 177.585976691652 58.6600000000001
vertex 216.789460234518 177.585976691652 47.0000000000001
endloop
endfacet
facet normal 0.866025403784488 0.499999999999914 0.0
outer loop
vertex 216.789460234518 177.585976691652 58.6600000000001
vertex 216.497960234518 178.090869502058 47.0000000000001
vertex 216.497960234518 178.090869502058 58.6600000000001
endloop
endfacet
facet normal -0.500000000000171 -0.86602540378434 -1.09396646368979e-017
outer loop
vertex 222.890722751143 178.598342185886 64.4900000000001
vertex 221.36297421945 179.480388211914 58.6600000000001
vertex 222.890722751143 178.598342185886 58.6600000000001
endloop
endfacet
facet normal -0.500000000000171 -0.86602540378434 -1.09396646368979e-017
outer loop
vertex 221.36297421945 179.480388211914 58.6600000000001
vertex 222.890722751143 178.598342185886 64.4900000000001
vertex 221.36297421945 179.480388211914 61.8564361306414
endloop
endfacet
facet normal 0.432495530594975 -0.749104233036939 -0.501787269728427
outer loop
vertex 222.890722751143 178.598342185886 64.4900000000001
vertex 220.482679326358 178.97214971842 61.8564361306414
vertex 221.36297421945 179.480388211914 61.8564361306414
endloop
endfacet
facet normal 0.432495530594975 -0.749104233036939 -0.501787269728427
outer loop
vertex 220.482679326358 178.97214971842 61.8564361306414
vertex 222.890722751143 178.598342185886 64.4900000000001
vertex 219.602384433265 178.463911224927 61.8564361306414
endloop
endfacet
facet normal 0.432495530594975 -0.749104233036939 -0.501787269728427
outer loop
vertex 219.602384433265 178.463911224927 61.8564361306414
vertex 222.890722751143 178.598342185886 64.4900000000001
vertex 218.722089540173 177.955672731434 61.8564361306414
endloop
endfacet
facet normal 0.432495530594975 -0.749104233036939 -0.501787269728427
outer loop
vertex 218.722089540173 177.955672731434 61.8564361306414
vertex 222.890722751143 178.598342185886 64.4900000000001
vertex 217.84179464708 177.447434237941 61.8564361306414
endloop
endfacet
facet normal 0.432495530594975 -0.749104233036939 -0.501787269728427
outer loop
vertex 217.84179464708 177.447434237941 61.8564361306414
vertex 222.890722751143 178.598342185886 64.4900000000001
vertex 217.84179464708 175.683342185886 64.4900000000001
endloop
endfacet
facet normal 0.432495530594975 -0.749104233036939 -0.501787269728427
outer loop
vertex 217.84179464708 175.683342185886 64.4900000000001
vertex 222.890722751143 178.598342185886 64.4900000000001
vertex 221.964227181398 177.390909651569 65.4939864698149
endloop
endfacet
facet normal 0.432495530594975 -0.749104233036939 -0.501787269728427
outer loop
vertex 217.84179464708 175.683342185886 64.4900000000001
vertex 221.964227181398 177.390909651569 65.4939864698149
vertex 219.350709680028 175.881994618621 65.4939864698155
endloop
endfacet
facet normal 0.432495530594975 -0.749104233036939 -0.501787269728427
outer loop
vertex 219.350709680028 175.881994618621 65.4939864698155
vertex 221.964227181398 177.390909651569 65.4939864698149
vertex 220.75679464708 176.464414081823 65.8364275578328
endloop
endfacet
endsolid topper
