solid generated by Pro/DESKTOP Version 8.0
	facet normal -1.000000e+000 0.000000e+000 0.000000e+000
		outer loop
			vertex 0.000000e+000 -7.500000e+000 -3.000000e+000
			vertex 0.000000e+000 -6.954546e+000 -3.393197e-015
			vertex 0.000000e+000 2.095455e+001 -5.081585e-016
		endloop
	endfacet
	facet normal -1.000000e+000 0.000000e+000 0.000000e+000
		outer loop
			vertex 0.000000e+000 2.150000e+001 -3.000000e+000
			vertex 0.000000e+000 -7.500000e+000 -3.000000e+000
			vertex 0.000000e+000 2.095455e+001 -5.081585e-016
		endloop
	endfacet
	facet normal 1.000000e+000 0.000000e+000 0.000000e+000
		outer loop
			vertex 1.620000e+002 2.150000e+001 -3.000000e+000
			vertex 1.620000e+002 2.095455e+001 -8.511723e-017
			vertex 1.620000e+002 -6.954546e+000 -3.382305e-015
		endloop
	endfacet
	facet normal 1.000000e+000 0.000000e+000 0.000000e+000
		outer loop
			vertex 1.620000e+002 -7.500000e+000 -3.000000e+000
			vertex 1.620000e+002 2.150000e+001 -3.000000e+000
			vertex 1.620000e+002 -6.954546e+000 -3.382305e-015
		endloop
	endfacet
	facet normal 0.000000e+000 0.000000e+000 1.000000e+000
		outer loop
			vertex 8.000000e+000 1.950000e+001 8.000000e+000
			vertex 7.300000e+001 7.000000e+000 8.000000e+000
			vertex 7.360880e+001 1.006082e+001 8.000000e+000
		endloop
	endfacet
	facet normal 0.000000e+000 0.000000e+000 1.000000e+000
		outer loop
			vertex 8.000000e+000 1.950000e+001 8.000000e+000
			vertex 7.360880e+001 1.006082e+001 8.000000e+000
			vertex 7.534327e+001 1.265673e+001 8.000000e+000
		endloop
	endfacet
	facet normal 0.000000e+000 0.000000e+000 1.000000e+000
		outer loop
			vertex 8.000000e+000 1.950000e+001 8.000000e+000
			vertex 7.534327e+001 1.265673e+001 8.000000e+000
			vertex 7.793918e+001 1.439120e+001 8.000000e+000
		endloop
	endfacet
	facet normal 0.000000e+000 0.000000e+000 1.000000e+000
		outer loop
			vertex 8.000000e+000 1.950000e+001 8.000000e+000
			vertex 7.793918e+001 1.439120e+001 8.000000e+000
			vertex 8.100000e+001 1.500000e+001 8.000000e+000
		endloop
	endfacet
	facet normal 0.000000e+000 0.000000e+000 1.000000e+000
		outer loop
			vertex 8.839120e+001 1.006082e+001 8.000000e+000
			vertex 8.900000e+001 7.000000e+000 8.000000e+000
			vertex 1.540000e+002 -5.500000e+000 8.000000e+000
		endloop
	endfacet
	facet normal 0.000000e+000 0.000000e+000 1.000000e+000
		outer loop
			vertex 8.665673e+001 1.265673e+001 8.000000e+000
			vertex 8.839120e+001 1.006082e+001 8.000000e+000
			vertex 1.540000e+002 -5.500000e+000 8.000000e+000
		endloop
	endfacet
	facet normal 0.000000e+000 0.000000e+000 1.000000e+000
		outer loop
			vertex 8.406082e+001 1.439120e+001 8.000000e+000
			vertex 8.665673e+001 1.265673e+001 8.000000e+000
			vertex 1.540000e+002 -5.500000e+000 8.000000e+000
		endloop
	endfacet
	facet normal 0.000000e+000 0.000000e+000 1.000000e+000
		outer loop
			vertex 8.406082e+001 1.439120e+001 8.000000e+000
			vertex 1.540000e+002 -5.500000e+000 8.000000e+000
			vertex 1.540000e+002 1.950000e+001 8.000000e+000
		endloop
	endfacet
	facet normal 0.000000e+000 0.000000e+000 1.000000e+000
		outer loop
			vertex 8.100000e+001 1.500000e+001 8.000000e+000
			vertex 8.406082e+001 1.439120e+001 8.000000e+000
			vertex 1.540000e+002 1.950000e+001 8.000000e+000
		endloop
	endfacet
	facet normal 0.000000e+000 0.000000e+000 1.000000e+000
		outer loop
			vertex 1.540000e+002 1.950000e+001 8.000000e+000
			vertex 8.000000e+000 1.950000e+001 8.000000e+000
			vertex 8.100000e+001 1.500000e+001 8.000000e+000
		endloop
	endfacet
	facet normal 0.000000e+000 0.000000e+000 1.000000e+000
		outer loop
			vertex 1.540000e+002 -5.500000e+000 8.000000e+000
			vertex 8.900000e+001 7.000000e+000 8.000000e+000
			vertex 8.839120e+001 3.939185e+000 8.000000e+000
		endloop
	endfacet
	facet normal 0.000000e+000 0.000000e+000 1.000000e+000
		outer loop
			vertex 1.540000e+002 -5.500000e+000 8.000000e+000
			vertex 8.839120e+001 3.939185e+000 8.000000e+000
			vertex 8.665673e+001 1.343268e+000 8.000000e+000
		endloop
	endfacet
	facet normal 0.000000e+000 0.000000e+000 1.000000e+000
		outer loop
			vertex 1.540000e+002 -5.500000e+000 8.000000e+000
			vertex 8.665673e+001 1.343268e+000 8.000000e+000
			vertex 8.406082e+001 -3.912009e-001 8.000000e+000
		endloop
	endfacet
	facet normal 0.000000e+000 0.000000e+000 1.000000e+000
		outer loop
			vertex 1.540000e+002 -5.500000e+000 8.000000e+000
			vertex 8.406082e+001 -3.912009e-001 8.000000e+000
			vertex 8.100000e+001 -1.000000e+000 8.000000e+000
		endloop
	endfacet
	facet normal 0.000000e+000 0.000000e+000 1.000000e+000
		outer loop
			vertex 7.360880e+001 3.939185e+000 8.000000e+000
			vertex 7.300000e+001 7.000000e+000 8.000000e+000
			vertex 8.000000e+000 1.950000e+001 8.000000e+000
		endloop
	endfacet
	facet normal 0.000000e+000 0.000000e+000 1.000000e+000
		outer loop
			vertex 7.534327e+001 1.343268e+000 8.000000e+000
			vertex 7.360880e+001 3.939185e+000 8.000000e+000
			vertex 8.000000e+000 1.950000e+001 8.000000e+000
		endloop
	endfacet
	facet normal 0.000000e+000 0.000000e+000 1.000000e+000
		outer loop
			vertex 7.793918e+001 -3.912009e-001 8.000000e+000
			vertex 7.534327e+001 1.343268e+000 8.000000e+000
			vertex 8.000000e+000 1.950000e+001 8.000000e+000
		endloop
	endfacet
	facet normal 0.000000e+000 0.000000e+000 1.000000e+000
		outer loop
			vertex 7.793918e+001 -3.912009e-001 8.000000e+000
			vertex 8.000000e+000 1.950000e+001 8.000000e+000
			vertex 8.000000e+000 -5.500000e+000 8.000000e+000
		endloop
	endfacet
	facet normal 0.000000e+000 0.000000e+000 1.000000e+000
		outer loop
			vertex 8.100000e+001 -1.000000e+000 8.000000e+000
			vertex 7.793918e+001 -3.912009e-001 8.000000e+000
			vertex 8.000000e+000 -5.500000e+000 8.000000e+000
		endloop
	endfacet
	facet normal 0.000000e+000 0.000000e+000 1.000000e+000
		outer loop
			vertex 8.000000e+000 -5.500000e+000 8.000000e+000
			vertex 1.540000e+002 -5.500000e+000 8.000000e+000
			vertex 8.100000e+001 -1.000000e+000 8.000000e+000
		endloop
	endfacet
	facet normal -1.024893e-006 -9.838699e-001 1.788853e-001
		outer loop
			vertex 1.620000e+002 -6.954546e+000 -3.382305e-015
			vertex 1.613813e+002 -6.393714e+000 3.084570e+000
			vertex 1.620000e+002 -7.500000e+000 -3.000000e+000
		endloop
	endfacet
	facet normal 1.845909e-007 -9.838699e-001 1.788854e-001
		outer loop
			vertex 1.620000e+002 -7.500000e+000 -3.000000e+000
			vertex 1.613813e+002 -6.393714e+000 3.084570e+000
			vertex 1.596342e+002 -5.921919e+000 5.679444e+000
		endloop
	endfacet
	facet normal -1.879569e-007 -9.838699e-001 1.788854e-001
		outer loop
			vertex 1.620000e+002 -7.500000e+000 -3.000000e+000
			vertex 1.596342e+002 -5.921919e+000 5.679444e+000
			vertex 1.570414e+002 -5.609252e+000 7.399113e+000
		endloop
	endfacet
	facet normal 7.559183e-008 -9.838699e-001 1.788855e-001
		outer loop
			vertex 1.620000e+002 -7.500000e+000 -3.000000e+000
			vertex 1.570414e+002 -5.609252e+000 7.399113e+000
			vertex 1.540000e+002 -5.500000e+000 8.000000e+000
		endloop
	endfacet
	facet normal 0.000000e+000 -9.838699e-001 1.788854e-001
		outer loop
			vertex 1.620000e+002 -7.500000e+000 -3.000000e+000
			vertex 1.540000e+002 -5.500000e+000 8.000000e+000
			vertex 8.000000e+000 -5.500000e+000 8.000000e+000
		endloop
	endfacet
	facet normal -1.718845e-008 -9.838700e-001 1.788852e-001
		outer loop
			vertex 1.620000e+002 -7.500000e+000 -3.000000e+000
			vertex 8.000000e+000 -5.500000e+000 8.000000e+000
			vertex 4.958559e+000 -5.609252e+000 7.399113e+000
		endloop
	endfacet
	facet normal 1.166578e-008 -9.838699e-001 1.788856e-001
		outer loop
			vertex 1.620000e+002 -7.500000e+000 -3.000000e+000
			vertex 4.958559e+000 -5.609252e+000 7.399113e+000
			vertex 2.365827e+000 -5.921919e+000 5.679444e+000
		endloop
	endfacet
	facet normal -3.879606e-009 -9.838699e-001 1.788853e-001
		outer loop
			vertex 1.620000e+002 -7.500000e+000 -3.000000e+000
			vertex 2.365827e+000 -5.921919e+000 5.679444e+000
			vertex 6.187402e-001 -6.393714e+000 3.084570e+000
		endloop
	endfacet
	facet normal 3.793050e-009 -9.838699e-001 1.788855e-001
		outer loop
			vertex 1.620000e+002 -7.500000e+000 -3.000000e+000
			vertex 6.187402e-001 -6.393714e+000 3.084570e+000
			vertex 0.000000e+000 -6.954546e+000 -3.393197e-015
		endloop
	endfacet
	facet normal 0.000000e+000 -9.838699e-001 1.788853e-001
		outer loop
			vertex 0.000000e+000 -7.500000e+000 -3.000000e+000
			vertex 1.620000e+002 -7.500000e+000 -3.000000e+000
			vertex 0.000000e+000 -6.954546e+000 -3.393197e-015
		endloop
	endfacet
	facet normal 0.000000e+000 0.000000e+000 -1.000000e+000
		outer loop
			vertex 0.000000e+000 -7.500000e+000 -3.000000e+000
			vertex 7.300000e+001 7.000000e+000 -3.000000e+000
			vertex 7.360880e+001 3.939185e+000 -3.000000e+000
		endloop
	endfacet
	facet normal 0.000000e+000 0.000000e+000 -1.000000e+000
		outer loop
			vertex 0.000000e+000 -7.500000e+000 -3.000000e+000
			vertex 7.360880e+001 3.939185e+000 -3.000000e+000
			vertex 7.534327e+001 1.343268e+000 -3.000000e+000
		endloop
	endfacet
	facet normal 0.000000e+000 0.000000e+000 -1.000000e+000
		outer loop
			vertex 0.000000e+000 -7.500000e+000 -3.000000e+000
			vertex 7.534327e+001 1.343268e+000 -3.000000e+000
			vertex 7.793918e+001 -3.912009e-001 -3.000000e+000
		endloop
	endfacet
	facet normal 0.000000e+000 0.000000e+000 -1.000000e+000
		outer loop
			vertex 0.000000e+000 -7.500000e+000 -3.000000e+000
			vertex 7.793918e+001 -3.912009e-001 -3.000000e+000
			vertex 8.100000e+001 -1.000000e+000 -3.000000e+000
		endloop
	endfacet
	facet normal 0.000000e+000 0.000000e+000 -1.000000e+000
		outer loop
			vertex 8.839120e+001 3.939185e+000 -3.000000e+000
			vertex 8.900000e+001 7.000000e+000 -3.000000e+000
			vertex 1.620000e+002 2.150000e+001 -3.000000e+000
		endloop
	endfacet
	facet normal 0.000000e+000 0.000000e+000 -1.000000e+000
		outer loop
			vertex 8.665673e+001 1.343268e+000 -3.000000e+000
			vertex 8.839120e+001 3.939185e+000 -3.000000e+000
			vertex 1.620000e+002 2.150000e+001 -3.000000e+000
		endloop
	endfacet
	facet normal 0.000000e+000 0.000000e+000 -1.000000e+000
		outer loop
			vertex 8.406082e+001 -3.912009e-001 -3.000000e+000
			vertex 8.665673e+001 1.343268e+000 -3.000000e+000
			vertex 1.620000e+002 2.150000e+001 -3.000000e+000
		endloop
	endfacet
	facet normal 0.000000e+000 0.000000e+000 -1.000000e+000
		outer loop
			vertex 8.406082e+001 -3.912009e-001 -3.000000e+000
			vertex 1.620000e+002 2.150000e+001 -3.000000e+000
			vertex 1.620000e+002 -7.500000e+000 -3.000000e+000
		endloop
	endfacet
	facet normal 0.000000e+000 0.000000e+000 -1.000000e+000
		outer loop
			vertex 8.100000e+001 -1.000000e+000 -3.000000e+000
			vertex 8.406082e+001 -3.912009e-001 -3.000000e+000
			vertex 1.620000e+002 -7.500000e+000 -3.000000e+000
		endloop
	endfacet
	facet normal 0.000000e+000 0.000000e+000 -1.000000e+000
		outer loop
			vertex 1.620000e+002 -7.500000e+000 -3.000000e+000
			vertex 0.000000e+000 -7.500000e+000 -3.000000e+000
			vertex 8.100000e+001 -1.000000e+000 -3.000000e+000
		endloop
	endfacet
	facet normal 0.000000e+000 0.000000e+000 -1.000000e+000
		outer loop
			vertex 1.620000e+002 2.150000e+001 -3.000000e+000
			vertex 8.900000e+001 7.000000e+000 -3.000000e+000
			vertex 8.839120e+001 1.006082e+001 -3.000000e+000
		endloop
	endfacet
	facet normal 0.000000e+000 0.000000e+000 -1.000000e+000
		outer loop
			vertex 1.620000e+002 2.150000e+001 -3.000000e+000
			vertex 8.839120e+001 1.006082e+001 -3.000000e+000
			vertex 8.665673e+001 1.265673e+001 -3.000000e+000
		endloop
	endfacet
	facet normal 0.000000e+000 0.000000e+000 -1.000000e+000
		outer loop
			vertex 1.620000e+002 2.150000e+001 -3.000000e+000
			vertex 8.665673e+001 1.265673e+001 -3.000000e+000
			vertex 8.406082e+001 1.439120e+001 -3.000000e+000
		endloop
	endfacet
	facet normal 0.000000e+000 0.000000e+000 -1.000000e+000
		outer loop
			vertex 1.620000e+002 2.150000e+001 -3.000000e+000
			vertex 8.406082e+001 1.439120e+001 -3.000000e+000
			vertex 8.100000e+001 1.500000e+001 -3.000000e+000
		endloop
	endfacet
	facet normal 0.000000e+000 0.000000e+000 -1.000000e+000
		outer loop
			vertex 7.360880e+001 1.006082e+001 -3.000000e+000
			vertex 7.300000e+001 7.000000e+000 -3.000000e+000
			vertex 0.000000e+000 -7.500000e+000 -3.000000e+000
		endloop
	endfacet
	facet normal 0.000000e+000 0.000000e+000 -1.000000e+000
		outer loop
			vertex 7.534327e+001 1.265673e+001 -3.000000e+000
			vertex 7.360880e+001 1.006082e+001 -3.000000e+000
			vertex 0.000000e+000 -7.500000e+000 -3.000000e+000
		endloop
	endfacet
	facet normal 0.000000e+000 0.000000e+000 -1.000000e+000
		outer loop
			vertex 7.793918e+001 1.439120e+001 -3.000000e+000
			vertex 7.534327e+001 1.265673e+001 -3.000000e+000
			vertex 0.000000e+000 -7.500000e+000 -3.000000e+000
		endloop
	endfacet
	facet normal 0.000000e+000 0.000000e+000 -1.000000e+000
		outer loop
			vertex 7.793918e+001 1.439120e+001 -3.000000e+000
			vertex 0.000000e+000 -7.500000e+000 -3.000000e+000
			vertex 0.000000e+000 2.150000e+001 -3.000000e+000
		endloop
	endfacet
	facet normal 0.000000e+000 0.000000e+000 -1.000000e+000
		outer loop
			vertex 8.100000e+001 1.500000e+001 -3.000000e+000
			vertex 7.793918e+001 1.439120e+001 -3.000000e+000
			vertex 0.000000e+000 2.150000e+001 -3.000000e+000
		endloop
	endfacet
	facet normal 0.000000e+000 0.000000e+000 -1.000000e+000
		outer loop
			vertex 0.000000e+000 2.150000e+001 -3.000000e+000
			vertex 1.620000e+002 2.150000e+001 -3.000000e+000
			vertex 8.100000e+001 1.500000e+001 -3.000000e+000
		endloop
	endfacet
	facet normal -4.480544e-007 9.838699e-001 1.788856e-001
		outer loop
			vertex 0.000000e+000 2.150000e+001 -3.000000e+000
			vertex 6.187402e-001 2.039371e+001 3.084570e+000
			vertex 2.365827e+000 1.992192e+001 5.679444e+000
		endloop
	endfacet
	facet normal 1.024816e-007 9.838699e-001 1.788855e-001
		outer loop
			vertex 0.000000e+000 2.150000e+001 -3.000000e+000
			vertex 2.365827e+000 1.992192e+001 5.679444e+000
			vertex 4.958559e+000 1.960925e+001 7.399113e+000
		endloop
	endfacet
	facet normal -2.611131e-007 9.838699e-001 1.788856e-001
		outer loop
			vertex 0.000000e+000 2.150000e+001 -3.000000e+000
			vertex 4.958559e+000 1.960925e+001 7.399113e+000
			vertex 8.000000e+000 1.950000e+001 8.000000e+000
		endloop
	endfacet
	facet normal 0.000000e+000 9.838699e-001 1.788855e-001
		outer loop
			vertex 0.000000e+000 2.150000e+001 -3.000000e+000
			vertex 8.000000e+000 1.950000e+001 8.000000e+000
			vertex 1.540000e+002 1.950000e+001 8.000000e+000
		endloop
	endfacet
	facet normal 5.937306e-008 9.838700e-001 1.788847e-001
		outer loop
			vertex 0.000000e+000 2.150000e+001 -3.000000e+000
			vertex 1.540000e+002 1.950000e+001 8.000000e+000
			vertex 1.570414e+002 1.960925e+001 7.399113e+000
		endloop
	endfacet
	facet normal -6.360664e-009 9.838699e-001 1.788856e-001
		outer loop
			vertex 0.000000e+000 2.150000e+001 -3.000000e+000
			vertex 1.570414e+002 1.960925e+001 7.399113e+000
			vertex 1.596342e+002 1.992192e+001 5.679444e+000
		endloop
	endfacet
	facet normal 9.416903e-009 9.838699e-001 1.788853e-001
		outer loop
			vertex 0.000000e+000 2.150000e+001 -3.000000e+000
			vertex 1.596342e+002 1.992192e+001 5.679444e+000
			vertex 1.613813e+002 2.039371e+001 3.084570e+000
		endloop
	endfacet
	facet normal 1.842191e-009 9.838699e-001 1.788855e-001
		outer loop
			vertex 0.000000e+000 2.150000e+001 -3.000000e+000
			vertex 1.613813e+002 2.039371e+001 3.084570e+000
			vertex 1.620000e+002 2.095455e+001 -8.511723e-017
		endloop
	endfacet
	facet normal 0.000000e+000 9.838699e-001 1.788856e-001
		outer loop
			vertex 1.620000e+002 2.150000e+001 -3.000000e+000
			vertex 0.000000e+000 2.150000e+001 -3.000000e+000
			vertex 1.620000e+002 2.095455e+001 -8.511723e-017
		endloop
	endfacet
	facet normal -4.977659e-007 9.838699e-001 1.788856e-001
		outer loop
			vertex 0.000000e+000 2.095455e+001 -5.081585e-016
			vertex 6.187402e-001 2.039371e+001 3.084570e+000
			vertex 0.000000e+000 2.150000e+001 -3.000000e+000
		endloop
	endfacet
	facet normal 9.807873e-001 -1.950804e-001 0.000000e+000
		outer loop
			vertex 7.300000e+001 7.000000e+000 -3.000000e+000
			vertex 7.360880e+001 1.006082e+001 -3.000000e+000
			vertex 7.300000e+001 7.000000e+000 8.000000e+000
		endloop
	endfacet
	facet normal 9.807873e-001 -1.950804e-001 0.000000e+000
		outer loop
			vertex 7.360880e+001 1.006082e+001 8.000000e+000
			vertex 7.300000e+001 7.000000e+000 8.000000e+000
			vertex 7.360880e+001 1.006082e+001 -3.000000e+000
		endloop
	endfacet
	facet normal 8.314800e-001 -5.555546e-001 0.000000e+000
		outer loop
			vertex 7.360880e+001 1.006082e+001 -3.000000e+000
			vertex 7.534327e+001 1.265673e+001 -3.000000e+000
			vertex 7.360880e+001 1.006082e+001 8.000000e+000
		endloop
	endfacet
	facet normal 8.314800e-001 -5.555546e-001 0.000000e+000
		outer loop
			vertex 7.534327e+001 1.265673e+001 8.000000e+000
			vertex 7.360880e+001 1.006082e+001 8.000000e+000
			vertex 7.534327e+001 1.265673e+001 -3.000000e+000
		endloop
	endfacet
	facet normal 5.555555e-001 -8.314795e-001 0.000000e+000
		outer loop
			vertex 7.534327e+001 1.265673e+001 -3.000000e+000
			vertex 7.793918e+001 1.439120e+001 -3.000000e+000
			vertex 7.534327e+001 1.265673e+001 8.000000e+000
		endloop
	endfacet
	facet normal 5.555555e-001 -8.314795e-001 0.000000e+000
		outer loop
			vertex 7.793918e+001 1.439120e+001 8.000000e+000
			vertex 7.534327e+001 1.265673e+001 8.000000e+000
			vertex 7.793918e+001 1.439120e+001 -3.000000e+000
		endloop
	endfacet
	facet normal 1.950794e-001 -9.807875e-001 0.000000e+000
		outer loop
			vertex 7.793918e+001 1.439120e+001 -3.000000e+000
			vertex 8.100000e+001 1.500000e+001 -3.000000e+000
			vertex 7.793918e+001 1.439120e+001 8.000000e+000
		endloop
	endfacet
	facet normal 1.950794e-001 -9.807875e-001 0.000000e+000
		outer loop
			vertex 8.100000e+001 1.500000e+001 8.000000e+000
			vertex 7.793918e+001 1.439120e+001 8.000000e+000
			vertex 8.100000e+001 1.500000e+001 -3.000000e+000
		endloop
	endfacet
	facet normal -1.950794e-001 -9.807875e-001 0.000000e+000
		outer loop
			vertex 8.100000e+001 1.500000e+001 -3.000000e+000
			vertex 8.406082e+001 1.439120e+001 -3.000000e+000
			vertex 8.100000e+001 1.500000e+001 8.000000e+000
		endloop
	endfacet
	facet normal -1.950794e-001 -9.807875e-001 0.000000e+000
		outer loop
			vertex 8.406082e+001 1.439120e+001 8.000000e+000
			vertex 8.100000e+001 1.500000e+001 8.000000e+000
			vertex 8.406082e+001 1.439120e+001 -3.000000e+000
		endloop
	endfacet
	facet normal -5.555555e-001 -8.314795e-001 0.000000e+000
		outer loop
			vertex 8.406082e+001 1.439120e+001 -3.000000e+000
			vertex 8.665673e+001 1.265673e+001 -3.000000e+000
			vertex 8.406082e+001 1.439120e+001 8.000000e+000
		endloop
	endfacet
	facet normal -5.555555e-001 -8.314795e-001 0.000000e+000
		outer loop
			vertex 8.665673e+001 1.265673e+001 8.000000e+000
			vertex 8.406082e+001 1.439120e+001 8.000000e+000
			vertex 8.665673e+001 1.265673e+001 -3.000000e+000
		endloop
	endfacet
	facet normal -8.314800e-001 -5.555546e-001 0.000000e+000
		outer loop
			vertex 8.665673e+001 1.265673e+001 -3.000000e+000
			vertex 8.839120e+001 1.006082e+001 -3.000000e+000
			vertex 8.665673e+001 1.265673e+001 8.000000e+000
		endloop
	endfacet
	facet normal -8.314800e-001 -5.555546e-001 0.000000e+000
		outer loop
			vertex 8.839120e+001 1.006082e+001 8.000000e+000
			vertex 8.665673e+001 1.265673e+001 8.000000e+000
			vertex 8.839120e+001 1.006082e+001 -3.000000e+000
		endloop
	endfacet
	facet normal -9.807873e-001 -1.950804e-001 0.000000e+000
		outer loop
			vertex 8.839120e+001 1.006082e+001 -3.000000e+000
			vertex 8.900000e+001 7.000000e+000 -3.000000e+000
			vertex 8.839120e+001 1.006082e+001 8.000000e+000
		endloop
	endfacet
	facet normal -9.807873e-001 -1.950804e-001 0.000000e+000
		outer loop
			vertex 8.900000e+001 7.000000e+000 8.000000e+000
			vertex 8.839120e+001 1.006082e+001 8.000000e+000
			vertex 8.900000e+001 7.000000e+000 -3.000000e+000
		endloop
	endfacet
	facet normal -9.807873e-001 1.950804e-001 0.000000e+000
		outer loop
			vertex 8.900000e+001 7.000000e+000 -3.000000e+000
			vertex 8.839120e+001 3.939185e+000 -3.000000e+000
			vertex 8.900000e+001 7.000000e+000 8.000000e+000
		endloop
	endfacet
	facet normal -9.807873e-001 1.950804e-001 0.000000e+000
		outer loop
			vertex 8.839120e+001 3.939185e+000 8.000000e+000
			vertex 8.900000e+001 7.000000e+000 8.000000e+000
			vertex 8.839120e+001 3.939185e+000 -3.000000e+000
		endloop
	endfacet
	facet normal -8.314800e-001 5.555546e-001 0.000000e+000
		outer loop
			vertex 8.839120e+001 3.939185e+000 -3.000000e+000
			vertex 8.665673e+001 1.343268e+000 -3.000000e+000
			vertex 8.839120e+001 3.939185e+000 8.000000e+000
		endloop
	endfacet
	facet normal -8.314800e-001 5.555546e-001 0.000000e+000
		outer loop
			vertex 8.665673e+001 1.343268e+000 8.000000e+000
			vertex 8.839120e+001 3.939185e+000 8.000000e+000
			vertex 8.665673e+001 1.343268e+000 -3.000000e+000
		endloop
	endfacet
	facet normal -5.555555e-001 8.314794e-001 0.000000e+000
		outer loop
			vertex 8.665673e+001 1.343268e+000 -3.000000e+000
			vertex 8.406082e+001 -3.912009e-001 -3.000000e+000
			vertex 8.665673e+001 1.343268e+000 8.000000e+000
		endloop
	endfacet
	facet normal -5.555555e-001 8.314794e-001 0.000000e+000
		outer loop
			vertex 8.406082e+001 -3.912009e-001 8.000000e+000
			vertex 8.665673e+001 1.343268e+000 8.000000e+000
			vertex 8.406082e+001 -3.912009e-001 -3.000000e+000
		endloop
	endfacet
	facet normal -1.950794e-001 9.807875e-001 0.000000e+000
		outer loop
			vertex 8.406082e+001 -3.912009e-001 -3.000000e+000
			vertex 8.100000e+001 -1.000000e+000 -3.000000e+000
			vertex 8.406082e+001 -3.912009e-001 8.000000e+000
		endloop
	endfacet
	facet normal -1.950794e-001 9.807875e-001 0.000000e+000
		outer loop
			vertex 8.100000e+001 -1.000000e+000 8.000000e+000
			vertex 8.406082e+001 -3.912009e-001 8.000000e+000
			vertex 8.100000e+001 -1.000000e+000 -3.000000e+000
		endloop
	endfacet
	facet normal 1.950794e-001 9.807875e-001 0.000000e+000
		outer loop
			vertex 8.100000e+001 -1.000000e+000 -3.000000e+000
			vertex 7.793918e+001 -3.912009e-001 -3.000000e+000
			vertex 8.100000e+001 -1.000000e+000 8.000000e+000
		endloop
	endfacet
	facet normal 1.950794e-001 9.807875e-001 0.000000e+000
		outer loop
			vertex 7.793918e+001 -3.912009e-001 8.000000e+000
			vertex 8.100000e+001 -1.000000e+000 8.000000e+000
			vertex 7.793918e+001 -3.912009e-001 -3.000000e+000
		endloop
	endfacet
	facet normal 5.555555e-001 8.314794e-001 0.000000e+000
		outer loop
			vertex 7.793918e+001 -3.912009e-001 -3.000000e+000
			vertex 7.534327e+001 1.343268e+000 -3.000000e+000
			vertex 7.793918e+001 -3.912009e-001 8.000000e+000
		endloop
	endfacet
	facet normal 5.555555e-001 8.314794e-001 0.000000e+000
		outer loop
			vertex 7.534327e+001 1.343268e+000 8.000000e+000
			vertex 7.793918e+001 -3.912009e-001 8.000000e+000
			vertex 7.534327e+001 1.343268e+000 -3.000000e+000
		endloop
	endfacet
	facet normal 8.314800e-001 5.555546e-001 0.000000e+000
		outer loop
			vertex 7.534327e+001 1.343268e+000 -3.000000e+000
			vertex 7.360880e+001 3.939185e+000 -3.000000e+000
			vertex 7.534327e+001 1.343268e+000 8.000000e+000
		endloop
	endfacet
	facet normal 8.314800e-001 5.555546e-001 0.000000e+000
		outer loop
			vertex 7.360880e+001 3.939185e+000 8.000000e+000
			vertex 7.534327e+001 1.343268e+000 8.000000e+000
			vertex 7.360880e+001 3.939185e+000 -3.000000e+000
		endloop
	endfacet
	facet normal 9.807873e-001 1.950804e-001 0.000000e+000
		outer loop
			vertex 7.360880e+001 3.939185e+000 -3.000000e+000
			vertex 7.300000e+001 7.000000e+000 -3.000000e+000
			vertex 7.360880e+001 3.939185e+000 8.000000e+000
		endloop
	endfacet
	facet normal 9.807873e-001 1.950804e-001 0.000000e+000
		outer loop
			vertex 7.300000e+001 7.000000e+000 8.000000e+000
			vertex 7.360880e+001 3.939185e+000 8.000000e+000
			vertex 7.300000e+001 7.000000e+000 -3.000000e+000
		endloop
	endfacet
	facet normal 1.938199e-001 0.000000e+000 9.810371e-001
		outer loop
			vertex 1.540000e+002 -5.500000e+000 8.000000e+000
			vertex 1.570414e+002 -5.609252e+000 7.399113e+000
			vertex 1.540000e+002 1.950000e+001 8.000000e+000
		endloop
	endfacet
	facet normal 1.938199e-001 0.000000e+000 9.810371e-001
		outer loop
			vertex 1.570414e+002 1.960925e+001 7.399113e+000
			vertex 1.540000e+002 1.950000e+001 8.000000e+000
			vertex 1.570414e+002 -5.609252e+000 7.399113e+000
		endloop
	endfacet
	facet normal 5.527368e-001 0.000000e+000 8.333559e-001
		outer loop
			vertex 1.570414e+002 -5.609252e+000 7.399113e+000
			vertex 1.596342e+002 -5.921919e+000 5.679444e+000
			vertex 1.570414e+002 1.960925e+001 7.399113e+000
		endloop
	endfacet
	facet normal 5.527368e-001 0.000000e+000 8.333559e-001
		outer loop
			vertex 1.596342e+002 1.992192e+001 5.679444e+000
			vertex 1.570414e+002 1.960925e+001 7.399113e+000
			vertex 1.596342e+002 -5.921919e+000 5.679444e+000
		endloop
	endfacet
	facet normal 8.295060e-001 0.000000e+000 5.584977e-001
		outer loop
			vertex 1.596342e+002 -5.921919e+000 5.679444e+000
			vertex 1.605077e+002 -6.157817e+000 4.382007e+000
			vertex 1.596342e+002 1.992192e+001 5.679444e+000
		endloop
	endfacet
	facet normal 8.295060e-001 0.000000e+000 5.584977e-001
		outer loop
			vertex 1.605077e+002 2.015782e+001 4.382007e+000
			vertex 1.596342e+002 1.992192e+001 5.679444e+000
			vertex 1.605077e+002 -6.157817e+000 4.382007e+000
		endloop
	endfacet
	facet normal 8.295105e-001 0.000000e+000 5.584912e-001
		outer loop
			vertex 1.605077e+002 -6.157817e+000 4.382007e+000
			vertex 1.613813e+002 -6.393714e+000 3.084570e+000
			vertex 1.605077e+002 2.015782e+001 4.382007e+000
		endloop
	endfacet
	facet normal 8.295105e-001 0.000000e+000 5.584912e-001
		outer loop
			vertex 1.613813e+002 2.039371e+001 3.084570e+000
			vertex 1.605077e+002 2.015782e+001 4.382007e+000
			vertex 1.613813e+002 -6.393714e+000 3.084570e+000
		endloop
	endfacet
	facet normal 9.804698e-001 0.000000e+000 1.966699e-001
		outer loop
			vertex 1.613813e+002 -6.393714e+000 3.084570e+000
			vertex 1.616906e+002 -6.674130e+000 1.542285e+000
			vertex 1.613813e+002 2.039371e+001 3.084570e+000
		endloop
	endfacet
	facet normal 9.804698e-001 0.000000e+000 1.966699e-001
		outer loop
			vertex 1.616906e+002 2.067413e+001 1.542285e+000
			vertex 1.613813e+002 2.039371e+001 3.084570e+000
			vertex 1.616906e+002 -6.674130e+000 1.542285e+000
		endloop
	endfacet
	facet normal 9.804679e-001 0.000000e+000 1.966790e-001
		outer loop
			vertex 1.616906e+002 -6.674130e+000 1.542285e+000
			vertex 1.620000e+002 -6.954546e+000 -3.382305e-015
			vertex 1.616906e+002 2.067413e+001 1.542285e+000
		endloop
	endfacet
	facet normal 9.804679e-001 -2.323571e-017 1.966790e-001
		outer loop
			vertex 1.620000e+002 2.095455e+001 -8.511723e-017
			vertex 1.616906e+002 2.067413e+001 1.542285e+000
			vertex 1.620000e+002 -6.954546e+000 -3.382305e-015
		endloop
	endfacet
	facet normal -1.938203e-001 0.000000e+000 9.810371e-001
		outer loop
			vertex 8.000000e+000 1.950000e+001 8.000000e+000
			vertex 4.958559e+000 1.960925e+001 7.399113e+000
			vertex 8.000000e+000 -5.500000e+000 8.000000e+000
		endloop
	endfacet
	facet normal -1.938203e-001 0.000000e+000 9.810371e-001
		outer loop
			vertex 4.958559e+000 -5.609252e+000 7.399113e+000
			vertex 8.000000e+000 -5.500000e+000 8.000000e+000
			vertex 4.958559e+000 1.960925e+001 7.399113e+000
		endloop
	endfacet
	facet normal -5.527360e-001 0.000000e+000 8.333564e-001
		outer loop
			vertex 4.958559e+000 1.960925e+001 7.399113e+000
			vertex 2.365827e+000 1.992192e+001 5.679444e+000
			vertex 4.958559e+000 -5.609252e+000 7.399113e+000
		endloop
	endfacet
	facet normal -5.527360e-001 0.000000e+000 8.333564e-001
		outer loop
			vertex 2.365827e+000 -5.921919e+000 5.679444e+000
			vertex 4.958559e+000 -5.609252e+000 7.399113e+000
			vertex 2.365827e+000 1.992192e+001 5.679444e+000
		endloop
	endfacet
	facet normal -8.295083e-001 0.000000e+000 5.584944e-001
		outer loop
			vertex 2.365827e+000 1.992192e+001 5.679444e+000
			vertex 1.492283e+000 2.015782e+001 4.382007e+000
			vertex 2.365827e+000 -5.921919e+000 5.679444e+000
		endloop
	endfacet
	facet normal -8.295083e-001 0.000000e+000 5.584944e-001
		outer loop
			vertex 1.492283e+000 -6.157817e+000 4.382007e+000
			vertex 2.365827e+000 -5.921919e+000 5.679444e+000
			vertex 1.492283e+000 2.015782e+001 4.382007e+000
		endloop
	endfacet
	facet normal -8.295082e-001 0.000000e+000 5.584944e-001
		outer loop
			vertex 1.492283e+000 2.015782e+001 4.382007e+000
			vertex 6.187402e-001 2.039371e+001 3.084570e+000
			vertex 1.492283e+000 -6.157817e+000 4.382007e+000
		endloop
	endfacet
	facet normal -8.295082e-001 0.000000e+000 5.584944e-001
		outer loop
			vertex 6.187402e-001 -6.393714e+000 3.084570e+000
			vertex 1.492283e+000 -6.157817e+000 4.382007e+000
			vertex 6.187402e-001 2.039371e+001 3.084570e+000
		endloop
	endfacet
	facet normal -9.804689e-001 0.000000e+000 1.966742e-001
		outer loop
			vertex 6.187402e-001 2.039371e+001 3.084570e+000
			vertex 3.093701e-001 2.067413e+001 1.542285e+000
			vertex 6.187402e-001 -6.393714e+000 3.084570e+000
		endloop
	endfacet
	facet normal -9.804689e-001 0.000000e+000 1.966742e-001
		outer loop
			vertex 3.093701e-001 -6.674130e+000 1.542285e+000
			vertex 6.187402e-001 -6.393714e+000 3.084570e+000
			vertex 3.093701e-001 2.067413e+001 1.542285e+000
		endloop
	endfacet
	facet normal -9.804689e-001 0.000000e+000 1.966742e-001
		outer loop
			vertex 3.093701e-001 2.067413e+001 1.542285e+000
			vertex 0.000000e+000 2.095455e+001 -5.081585e-016
			vertex 3.093701e-001 -6.674130e+000 1.542285e+000
		endloop
	endfacet
	facet normal -9.804689e-001 -2.033075e-017 1.966742e-001
		outer loop
			vertex 0.000000e+000 -6.954546e+000 -3.393197e-015
			vertex 3.093701e-001 -6.674130e+000 1.542285e+000
			vertex 0.000000e+000 2.095455e+001 -5.081585e-016
		endloop
	endfacet
endsolid
